<?xml version="1.0" encoding="UTF-8" standalone="no"?>
<!DOCTYPE svg PUBLIC "-//W3C//DTD SVG 1.1//EN"
 "http://www.w3.org/Graphics/SVG/1.1/DTD/svg11.dtd">
<!-- Generated by graphviz version 2.43.0 (0)
 -->
<!-- Title: KingBrain Pages: 1 -->
<svg width="2075pt" height="807pt"
 viewBox="0.00 0.00 2074.66 806.99" xmlns="http://www.w3.org/2000/svg" xmlns:xlink="http://www.w3.org/1999/xlink">
<g id="graph0" class="graph" transform="scale(1 1) rotate(0) translate(4 802.99)">
<title>KingBrain</title>
<polygon fill="white" stroke="transparent" points="-4,4 -4,-802.99 2070.66,-802.99 2070.66,4 -4,4"/>
<!-- dotenv -->
<g id="node1" class="node">
<title>dotenv</title>
<ellipse fill="#f31616" stroke="black" cx="188.2" cy="-568.37" rx="29.37" ry="18"/>
<text text-anchor="middle" x="188.2" y="-565.87" font-family="Helvetica,sans-Serif" font-size="10.00" fill="#ffffff">dotenv</text>
</g>
<!-- kk_src_llm_local_client -->
<g id="node6" class="node">
<title>kk_src_llm_local_client</title>
<ellipse fill="#ac9d49" stroke="black" cx="356.2" cy="-357.61" rx="65.52" ry="28.98"/>
<text text-anchor="middle" x="356.2" y="-366.11" font-family="Helvetica,sans-Serif" font-size="10.00" fill="#000000">kk.</text>
<text text-anchor="middle" x="356.2" y="-355.11" font-family="Helvetica,sans-Serif" font-size="10.00" fill="#000000">src.</text>
<text text-anchor="middle" x="356.2" y="-344.11" font-family="Helvetica,sans-Serif" font-size="10.00" fill="#000000">llm_local_client</text>
</g>
<!-- dotenv&#45;&gt;kk_src_llm_local_client -->
<g id="edge1" class="edge">
<title>dotenv&#45;&gt;kk_src_llm_local_client</title>
<path fill="none" stroke="black" d="M224.2,-439.6C217.63,-405.33 251.66,-384.99 286.8,-373.26"/>
<polygon fill="#f31616" stroke="black" points="288.2,-376.49 296.71,-370.18 286.12,-369.81 288.2,-376.49"/>
</g>
<!-- kk_src_trade_market_ws -->
<g id="node17" class="node">
<title>kk_src_trade_market_ws</title>
<ellipse fill="#b3a44c" stroke="black" cx="77.2" cy="-255.85" rx="49.49" ry="36.54"/>
<text text-anchor="middle" x="77.2" y="-269.85" font-family="Helvetica,sans-Serif" font-size="10.00" fill="#000000">kk.</text>
<text text-anchor="middle" x="77.2" y="-258.85" font-family="Helvetica,sans-Serif" font-size="10.00" fill="#000000">src.</text>
<text text-anchor="middle" x="77.2" y="-247.85" font-family="Helvetica,sans-Serif" font-size="10.00" fill="#000000">trade.</text>
<text text-anchor="middle" x="77.2" y="-236.85" font-family="Helvetica,sans-Serif" font-size="10.00" fill="#000000">market_ws</text>
</g>
<!-- dotenv&#45;&gt;kk_src_trade_market_ws -->
<g id="edge2" class="edge">
<title>dotenv&#45;&gt;kk_src_trade_market_ws</title>
<path fill="none" stroke="black" d="M224.2,-439.6C217.43,-404.25 223.2,-394.59 224.2,-358.61"/>
<path fill="none" stroke="black" d="M224.2,-356.61C225.38,-314.1 135.9,-293.02 135.2,-292.62 131.27,-290.4 127.22,-288.05 123.18,-285.65"/>
<polygon fill="#f31616" stroke="black" points="124.76,-282.52 114.38,-280.37 121.15,-288.52 124.76,-282.52"/>
</g>
<!-- kk_src_trade_market_ws_binance -->
<g id="node18" class="node">
<title>kk_src_trade_market_ws_binance</title>
<ellipse fill="#b3a44c" stroke="black" cx="224.2" cy="-255.85" rx="79.81" ry="36.54"/>
<text text-anchor="middle" x="224.2" y="-269.85" font-family="Helvetica,sans-Serif" font-size="10.00" fill="#000000">kk.</text>
<text text-anchor="middle" x="224.2" y="-258.85" font-family="Helvetica,sans-Serif" font-size="10.00" fill="#000000">src.</text>
<text text-anchor="middle" x="224.2" y="-247.85" font-family="Helvetica,sans-Serif" font-size="10.00" fill="#000000">trade.</text>
<text text-anchor="middle" x="224.2" y="-236.85" font-family="Helvetica,sans-Serif" font-size="10.00" fill="#000000">market_ws_binance</text>
</g>
<!-- dotenv&#45;&gt;kk_src_trade_market_ws_binance -->
<g id="edge3" class="edge">
<title>dotenv&#45;&gt;kk_src_trade_market_ws_binance</title>
<path fill="none" stroke="black" d="M224.2,-356.61C224.68,-339.12 224.79,-319.89 224.73,-303.03"/>
<polygon fill="#f31616" stroke="black" points="228.23,-302.85 224.68,-292.87 221.23,-302.89 228.23,-302.85"/>
</g>
<!-- kk_src_trade_market_ws_okx -->
<g id="node19" class="node">
<title>kk_src_trade_market_ws_okx</title>
<ellipse fill="#b3a44c" stroke="black" cx="388.2" cy="-255.85" rx="65.52" ry="36.54"/>
<text text-anchor="middle" x="388.2" y="-269.85" font-family="Helvetica,sans-Serif" font-size="10.00" fill="#000000">kk.</text>
<text text-anchor="middle" x="388.2" y="-258.85" font-family="Helvetica,sans-Serif" font-size="10.00" fill="#000000">src.</text>
<text text-anchor="middle" x="388.2" y="-247.85" font-family="Helvetica,sans-Serif" font-size="10.00" fill="#000000">trade.</text>
<text text-anchor="middle" x="388.2" y="-236.85" font-family="Helvetica,sans-Serif" font-size="10.00" fill="#000000">market_ws_okx</text>
</g>
<!-- dotenv&#45;&gt;kk_src_trade_market_ws_okx -->
<g id="edge4" class="edge">
<title>dotenv&#45;&gt;kk_src_trade_market_ws_okx</title>
<path fill="none" stroke="black" d="M224.2,-356.61C224.65,-340.23 235.33,-338.77 248.2,-328.62 255.53,-322.83 294.99,-302.74 330.16,-285.28"/>
<polygon fill="#f31616" stroke="black" points="332.05,-288.25 339.45,-280.68 328.94,-281.98 332.05,-288.25"/>
</g>
<!-- kk_src_trade_order -->
<g id="node20" class="node">
<title>kk_src_trade_order</title>
<ellipse fill="#a49746" stroke="black" cx="745.2" cy="-36.77" rx="31.64" ry="36.54"/>
<text text-anchor="middle" x="745.2" y="-50.77" font-family="Helvetica,sans-Serif" font-size="10.00" fill="#000000">kk.</text>
<text text-anchor="middle" x="745.2" y="-39.77" font-family="Helvetica,sans-Serif" font-size="10.00" fill="#000000">src.</text>
<text text-anchor="middle" x="745.2" y="-28.77" font-family="Helvetica,sans-Serif" font-size="10.00" fill="#000000">trade.</text>
<text text-anchor="middle" x="745.2" y="-17.77" font-family="Helvetica,sans-Serif" font-size="10.00" fill="#000000">order</text>
</g>
<!-- dotenv&#45;&gt;kk_src_trade_order -->
<g id="edge5" class="edge">
<title>dotenv&#45;&gt;kk_src_trade_order</title>
<path fill="none" stroke="black" d="M197.86,-551.31C210.96,-527.62 231.89,-481.75 224.2,-441.6"/>
<path fill="none" stroke="black" d="M224.2,-439.6C213.95,-376.8 141.92,-425.01 91.2,-386.6 26.59,-337.68 -30.68,-282.95 19.2,-219.08 105.4,-108.7 561.36,-55.64 703.11,-41.64"/>
<polygon fill="#f31616" stroke="black" points="703.54,-45.12 713.15,-40.67 702.86,-38.15 703.54,-45.12"/>
</g>
<!-- kk_src_trade_loop -->
<g id="node21" class="node">
<title>kk_src_trade_loop</title>
<ellipse fill="#b3a44c" stroke="black" cx="148.2" cy="-357.61" rx="48.17" ry="28.98"/>
<text text-anchor="middle" x="148.2" y="-366.11" font-family="Helvetica,sans-Serif" font-size="10.00" fill="#000000">kk.</text>
<text text-anchor="middle" x="148.2" y="-355.11" font-family="Helvetica,sans-Serif" font-size="10.00" fill="#000000">src.</text>
<text text-anchor="middle" x="148.2" y="-344.11" font-family="Helvetica,sans-Serif" font-size="10.00" fill="#000000">trade_loop</text>
</g>
<!-- dotenv&#45;&gt;kk_src_trade_loop -->
<g id="edge6" class="edge">
<title>dotenv&#45;&gt;kk_src_trade_loop</title>
<path fill="none" stroke="black" d="M224.2,-439.6C220.05,-417.95 204.46,-399.49 188.46,-385.69"/>
<polygon fill="#f31616" stroke="black" points="190.59,-382.9 180.63,-379.29 186.16,-388.32 190.59,-382.9"/>
</g>
<!-- kk_src_agent_agent_decide_and_execute -->
<g id="node2" class="node">
<title>kk_src_agent_agent_decide_and_execute</title>
<ellipse fill="#887d3a" stroke="black" cx="941.2" cy="-36.77" rx="105.22" ry="36.54"/>
<text text-anchor="middle" x="941.2" y="-50.77" font-family="Helvetica,sans-Serif" font-size="10.00" fill="#ffffff">kk.</text>
<text text-anchor="middle" x="941.2" y="-39.77" font-family="Helvetica,sans-Serif" font-size="10.00" fill="#ffffff">src.</text>
<text text-anchor="middle" x="941.2" y="-28.77" font-family="Helvetica,sans-Serif" font-size="10.00" fill="#ffffff">agent.</text>
<text text-anchor="middle" x="941.2" y="-17.77" font-family="Helvetica,sans-Serif" font-size="10.00" fill="#ffffff">agent_decide_and_execute</text>
</g>
<!-- kk_src_agent_llm_agent -->
<g id="node3" class="node">
<title>kk_src_agent_llm_agent</title>
<ellipse fill="#b3a44c" stroke="black" cx="616.2" cy="-255.85" rx="45.92" ry="36.54"/>
<text text-anchor="middle" x="616.2" y="-269.85" font-family="Helvetica,sans-Serif" font-size="10.00" fill="#000000">kk.</text>
<text text-anchor="middle" x="616.2" y="-258.85" font-family="Helvetica,sans-Serif" font-size="10.00" fill="#000000">src.</text>
<text text-anchor="middle" x="616.2" y="-247.85" font-family="Helvetica,sans-Serif" font-size="10.00" fill="#000000">agent.</text>
<text text-anchor="middle" x="616.2" y="-236.85" font-family="Helvetica,sans-Serif" font-size="10.00" fill="#000000">llm_agent</text>
</g>
<!-- kk_src_agent_position_guard -->
<g id="node4" class="node">
<title>kk_src_agent_position_guard</title>
<ellipse fill="#c2b147" stroke="black" cx="1032.2" cy="-146.31" rx="62.87" ry="36.54"/>
<text text-anchor="middle" x="1032.2" y="-160.31" font-family="Helvetica,sans-Serif" font-size="10.00" fill="#000000">kk.</text>
<text text-anchor="middle" x="1032.2" y="-149.31" font-family="Helvetica,sans-Serif" font-size="10.00" fill="#000000">src.</text>
<text text-anchor="middle" x="1032.2" y="-138.31" font-family="Helvetica,sans-Serif" font-size="10.00" fill="#000000">agent.</text>
<text text-anchor="middle" x="1032.2" y="-127.31" font-family="Helvetica,sans-Serif" font-size="10.00" fill="#000000">position_guard</text>
</g>
<!-- kk_src_agent_position_guard&#45;&gt;kk_src_agent_agent_decide_and_execute -->
<g id="edge7" class="edge">
<title>kk_src_agent_position_guard&#45;&gt;kk_src_agent_agent_decide_and_execute</title>
<path fill="none" stroke="black" d="M1004.89,-113.04C996.13,-102.69 986.29,-91.06 977.01,-80.1"/>
<polygon fill="#c2b147" stroke="black" points="979.51,-77.63 970.38,-72.26 974.17,-82.15 979.51,-77.63"/>
</g>
<!-- kk_src_intent_cache -->
<g id="node5" class="node">
<title>kk_src_intent_cache</title>
<ellipse fill="#b3a44c" stroke="black" cx="1357.2" cy="-357.61" rx="55.72" ry="28.98"/>
<text text-anchor="middle" x="1357.2" y="-366.11" font-family="Helvetica,sans-Serif" font-size="10.00" fill="#000000">kk.</text>
<text text-anchor="middle" x="1357.2" y="-355.11" font-family="Helvetica,sans-Serif" font-size="10.00" fill="#000000">src.</text>
<text text-anchor="middle" x="1357.2" y="-344.11" font-family="Helvetica,sans-Serif" font-size="10.00" fill="#000000">intent_cache</text>
</g>
<!-- kk_src_monitor -->
<g id="node7" class="node">
<title>kk_src_monitor</title>
<ellipse fill="#ceb93b" stroke="black" cx="821.2" cy="-255.85" rx="51.43" ry="18"/>
<text text-anchor="middle" x="821.2" y="-253.35" font-family="Helvetica,sans-Serif" font-size="10.00" fill="#000000">kk.src.monitor</text>
</g>
<!-- kk_src_monitor&#45;&gt;kk_src_agent_agent_decide_and_execute -->
<g id="edge8" class="edge">
<title>kk_src_monitor&#45;&gt;kk_src_agent_agent_decide_and_execute</title>
<path fill="none" stroke="black" d="M842.7,-239.32C853.72,-232.09 867.63,-224.01 881.2,-219.08 1003.55,-174.58 1198.91,-273.06 1165.2,-147.31"/>
<path fill="none" stroke="black" d="M1165.2,-145.31C1151.47,-94.13 1099.35,-67.3 1048.83,-53.25"/>
<polygon fill="#ceb93b" stroke="black" points="1049.66,-49.84 1039.1,-50.68 1047.88,-56.61 1049.66,-49.84"/>
</g>
<!-- kk_src_monitor&#45;&gt;kk_src_trade_order -->
<g id="edge9" class="edge">
<title>kk_src_monitor&#45;&gt;kk_src_trade_order</title>
<path fill="none" stroke="black" d="M815.23,-237.81C803.48,-204.24 777.01,-128.64 760.19,-80.59"/>
<polygon fill="#ceb93b" stroke="black" points="763.46,-79.35 756.86,-71.07 756.86,-81.67 763.46,-79.35"/>
</g>
<!-- kk_src_monitor_metrics -->
<g id="node8" class="node">
<title>kk_src_monitor_metrics</title>
<ellipse fill="#ccb633" stroke="black" cx="512.2" cy="-255.85" rx="40.11" ry="36.54"/>
<text text-anchor="middle" x="512.2" y="-269.85" font-family="Helvetica,sans-Serif" font-size="10.00" fill="#000000">kk.</text>
<text text-anchor="middle" x="512.2" y="-258.85" font-family="Helvetica,sans-Serif" font-size="10.00" fill="#000000">src.</text>
<text text-anchor="middle" x="512.2" y="-247.85" font-family="Helvetica,sans-Serif" font-size="10.00" fill="#000000">monitor.</text>
<text text-anchor="middle" x="512.2" y="-236.85" font-family="Helvetica,sans-Serif" font-size="10.00" fill="#000000">metrics</text>
</g>
<!-- kk_src_monitor_metrics&#45;&gt;kk_src_agent_agent_decide_and_execute -->
<g id="edge10" class="edge">
<title>kk_src_monitor_metrics&#45;&gt;kk_src_agent_agent_decide_and_execute</title>
<path fill="none" stroke="black" d="M745.2,-145.31C765.97,-129.84 769.17,-123.16 791.2,-109.54 814.71,-95 841.63,-81.3 866.1,-69.84"/>
<polygon fill="#ccb633" stroke="black" points="867.75,-72.94 875.35,-65.56 864.81,-66.58 867.75,-72.94"/>
</g>
<!-- kk_src_monitor_metrics&#45;&gt;kk_src_trade_order -->
<g id="edge11" class="edge">
<title>kk_src_monitor_metrics&#45;&gt;kk_src_trade_order</title>
<path fill="none" stroke="black" d="M542.23,-231.06C548.33,-226.78 554.82,-222.57 561.2,-219.08 638.18,-176.9 674.8,-199.74 745.2,-147.31"/>
<path fill="none" stroke="black" d="M745.2,-145.31C764.39,-131.01 764.36,-104.07 759.55,-80.73"/>
<polygon fill="#ccb633" stroke="black" points="762.95,-79.92 757.24,-71 756.14,-81.53 762.95,-79.92"/>
</g>
<!-- kk_src_risk -->
<g id="node9" class="node">
<title>kk_src_risk</title>
<ellipse fill="#c2b147" stroke="black" cx="1288.2" cy="-255.85" rx="39.38" ry="18"/>
<text text-anchor="middle" x="1288.2" y="-253.35" font-family="Helvetica,sans-Serif" font-size="10.00" fill="#000000">kk.src.risk</text>
</g>
<!-- kk_src_risk&#45;&gt;kk_src_agent_agent_decide_and_execute -->
<g id="edge12" class="edge">
<title>kk_src_risk&#45;&gt;kk_src_agent_agent_decide_and_execute</title>
<path fill="none" stroke="black" d="M1268.85,-239.89C1235.1,-213.53 1168.69,-160.36 1165.2,-147.31"/>
</g>
<!-- kk_src_risk_trailing -->
<g id="node10" class="node">
<title>kk_src_risk_trailing</title>
<ellipse fill="#c2b147" stroke="black" cx="716.2" cy="-255.85" rx="36.12" ry="36.54"/>
<text text-anchor="middle" x="716.2" y="-269.85" font-family="Helvetica,sans-Serif" font-size="10.00" fill="#000000">kk.</text>
<text text-anchor="middle" x="716.2" y="-258.85" font-family="Helvetica,sans-Serif" font-size="10.00" fill="#000000">src.</text>
<text text-anchor="middle" x="716.2" y="-247.85" font-family="Helvetica,sans-Serif" font-size="10.00" fill="#000000">risk.</text>
<text text-anchor="middle" x="716.2" y="-236.85" font-family="Helvetica,sans-Serif" font-size="10.00" fill="#000000">trailing</text>
</g>
<!-- kk_src_risk_trailing&#45;&gt;kk_src_agent_agent_decide_and_execute -->
<g id="edge13" class="edge">
<title>kk_src_risk_trailing&#45;&gt;kk_src_agent_agent_decide_and_execute</title>
<path fill="none" stroke="black" d="M742.01,-229.95C780.28,-193.02 852.51,-123.34 898.67,-78.8"/>
<polygon fill="#c2b147" stroke="black" points="901.36,-81.07 906.12,-71.61 896.5,-76.03 901.36,-81.07"/>
</g>
<!-- kk_src_storage -->
<g id="node11" class="node">
<title>kk_src_storage</title>
<ellipse fill="#c2b147" stroke="black" cx="1031.2" cy="-255.85" rx="50.75" ry="18"/>
<text text-anchor="middle" x="1031.2" y="-253.35" font-family="Helvetica,sans-Serif" font-size="10.00" fill="#000000">kk.src.storage</text>
</g>
<!-- kk_src_storage&#45;&gt;kk_src_agent_agent_decide_and_execute -->
<g id="edge14" class="edge">
<title>kk_src_storage&#45;&gt;kk_src_agent_agent_decide_and_execute</title>
<path fill="none" stroke="black" d="M1009.7,-239.48C993.25,-226.45 971.52,-206.22 960.2,-183.08 945.09,-152.21 940.64,-113.46 939.8,-83.74"/>
<polygon fill="#c2b147" stroke="black" points="943.3,-83.58 939.64,-73.64 936.3,-83.69 943.3,-83.58"/>
</g>
<!-- kk_src_storage_ensure_schema -->
<g id="node12" class="node">
<title>kk_src_storage_ensure_schema</title>
<ellipse fill="#c0ad40" stroke="black" cx="1165.2" cy="-255.85" rx="65.52" ry="36.54"/>
<text text-anchor="middle" x="1165.2" y="-269.85" font-family="Helvetica,sans-Serif" font-size="10.00" fill="#000000">kk.</text>
<text text-anchor="middle" x="1165.2" y="-258.85" font-family="Helvetica,sans-Serif" font-size="10.00" fill="#000000">src.</text>
<text text-anchor="middle" x="1165.2" y="-247.85" font-family="Helvetica,sans-Serif" font-size="10.00" fill="#000000">storage.</text>
<text text-anchor="middle" x="1165.2" y="-236.85" font-family="Helvetica,sans-Serif" font-size="10.00" fill="#000000">ensure_schema</text>
</g>
<!-- kk_src_storage_ensure_schema&#45;&gt;kk_src_agent_agent_decide_and_execute -->
<g id="edge15" class="edge">
<title>kk_src_storage_ensure_schema&#45;&gt;kk_src_agent_agent_decide_and_execute</title>
<path fill="none" stroke="black" d="M1169.8,-218.88C1171.38,-197.7 1171.43,-170.57 1165.2,-147.31"/>
</g>
<!-- kk_src_storage_ensure_tradelog -->
<g id="node13" class="node">
<title>kk_src_storage_ensure_tradelog</title>
<ellipse fill="#8f833d" stroke="black" cx="1682.2" cy="-255.85" rx="67.35" ry="36.54"/>
<text text-anchor="middle" x="1682.2" y="-269.85" font-family="Helvetica,sans-Serif" font-size="10.00" fill="#ffffff">kk.</text>
<text text-anchor="middle" x="1682.2" y="-258.85" font-family="Helvetica,sans-Serif" font-size="10.00" fill="#ffffff">src.</text>
<text text-anchor="middle" x="1682.2" y="-247.85" font-family="Helvetica,sans-Serif" font-size="10.00" fill="#ffffff">storage.</text>
<text text-anchor="middle" x="1682.2" y="-236.85" font-family="Helvetica,sans-Serif" font-size="10.00" fill="#ffffff">ensure_tradelog</text>
</g>
<!-- kk_src_storage_weaviate_client -->
<g id="node14" class="node">
<title>kk_src_storage_weaviate_client</title>
<ellipse fill="#ac9d49" stroke="black" cx="2000.2" cy="-255.85" rx="66.44" ry="36.54"/>
<text text-anchor="middle" x="2000.2" y="-269.85" font-family="Helvetica,sans-Serif" font-size="10.00" fill="#000000">kk.</text>
<text text-anchor="middle" x="2000.2" y="-258.85" font-family="Helvetica,sans-Serif" font-size="10.00" fill="#000000">src.</text>
<text text-anchor="middle" x="2000.2" y="-247.85" font-family="Helvetica,sans-Serif" font-size="10.00" fill="#000000">storage.</text>
<text text-anchor="middle" x="2000.2" y="-236.85" font-family="Helvetica,sans-Serif" font-size="10.00" fill="#000000">weaviate_client</text>
</g>
<!-- kk_src_storage_weaviate_schema -->
<g id="node15" class="node">
<title>kk_src_storage_weaviate_schema</title>
<ellipse fill="#b3a44c" stroke="black" cx="1841.2" cy="-255.85" rx="74.49" ry="36.54"/>
<text text-anchor="middle" x="1841.2" y="-269.85" font-family="Helvetica,sans-Serif" font-size="10.00" fill="#000000">kk.</text>
<text text-anchor="middle" x="1841.2" y="-258.85" font-family="Helvetica,sans-Serif" font-size="10.00" fill="#000000">src.</text>
<text text-anchor="middle" x="1841.2" y="-247.85" font-family="Helvetica,sans-Serif" font-size="10.00" fill="#000000">storage.</text>
<text text-anchor="middle" x="1841.2" y="-236.85" font-family="Helvetica,sans-Serif" font-size="10.00" fill="#000000">weaviate_schema</text>
</g>
<!-- kk_src_trade_market -->
<g id="node16" class="node">
<title>kk_src_trade_market</title>
<ellipse fill="#b3a44c" stroke="black" cx="926.2" cy="-255.85" rx="36.12" ry="36.54"/>
<text text-anchor="middle" x="926.2" y="-269.85" font-family="Helvetica,sans-Serif" font-size="10.00" fill="#000000">kk.</text>
<text text-anchor="middle" x="926.2" y="-258.85" font-family="Helvetica,sans-Serif" font-size="10.00" fill="#000000">src.</text>
<text text-anchor="middle" x="926.2" y="-247.85" font-family="Helvetica,sans-Serif" font-size="10.00" fill="#000000">trade.</text>
<text text-anchor="middle" x="926.2" y="-236.85" font-family="Helvetica,sans-Serif" font-size="10.00" fill="#000000">market</text>
</g>
<!-- kk_ws_main -->
<g id="node22" class="node">
<title>kk_ws_main</title>
<ellipse fill="#ac9d49" stroke="black" cx="334.2" cy="-440.6" rx="44.3" ry="18"/>
<text text-anchor="middle" x="334.2" y="-438.1" font-family="Helvetica,sans-Serif" font-size="10.00" fill="#000000">kk.ws_main</text>
</g>
<!-- openai -->
<g id="node23" class="node">
<title>openai</title>
<ellipse fill="#5fcc33" stroke="black" cx="850.2" cy="-568.37" rx="29.37" ry="18"/>
<text text-anchor="middle" x="850.2" y="-565.87" font-family="Helvetica,sans-Serif" font-size="10.00" fill="#000000">openai</text>
</g>
<!-- openai&#45;&gt;kk_src_agent_llm_agent -->
<g id="edge16" class="edge">
<title>openai&#45;&gt;kk_src_agent_llm_agent</title>
<path fill="none" stroke="black" d="M850.2,-494.6C787.01,-416.67 702.19,-335.34 653.95,-290.9"/>
<polygon fill="#5fcc33" stroke="black" points="656.26,-288.27 646.53,-284.09 651.53,-293.43 656.26,-288.27"/>
</g>
<!-- openai&#45;&gt;kk_ws_main -->
<g id="edge17" class="edge">
<title>openai&#45;&gt;kk_ws_main</title>
<path fill="none" stroke="black" d="M855.65,-550.59C859.69,-534.65 862.6,-510.89 850.2,-495.6"/>
<path fill="none" stroke="black" d="M850.2,-494.6C821.48,-459.18 515.16,-446.63 388.52,-442.93"/>
<polygon fill="#5fcc33" stroke="black" points="388.37,-439.43 378.27,-442.64 388.17,-446.43 388.37,-439.43"/>
</g>
<!-- prometheus_client -->
<g id="node24" class="node">
<title>prometheus_client</title>
<ellipse fill="#33cc8a" stroke="black" cx="298.2" cy="-568.37" rx="62.97" ry="18"/>
<text text-anchor="middle" x="298.2" y="-565.87" font-family="Helvetica,sans-Serif" font-size="10.00" fill="#000000">prometheus_client</text>
</g>
<!-- prometheus_client&#45;&gt;kk_src_monitor_metrics -->
<g id="edge18" class="edge">
<title>prometheus_client&#45;&gt;kk_src_monitor_metrics</title>
<path fill="none" stroke="black" d="M283.68,-550.82C273.12,-536.96 260.89,-516.19 262.2,-495.6"/>
<path fill="none" stroke="black" d="M262.2,-494.6C266.91,-420.5 230.87,-383.21 281.2,-328.62 337.08,-267.99 387.67,-325.71 463.2,-292.62 466.89,-291 470.57,-289.07 474.17,-286.95"/>
<polygon fill="#33cc8a" stroke="black" points="476.34,-289.71 482.88,-281.37 472.57,-283.81 476.34,-289.71"/>
</g>
<!-- prometheus_client&#45;&gt;kk_ws_main -->
<g id="edge19" class="edge">
<title>prometheus_client&#45;&gt;kk_ws_main</title>
<path fill="none" stroke="black" d="M262.2,-494.6C263.28,-477.51 276.81,-465.3 291.85,-456.95"/>
<polygon fill="#33cc8a" stroke="black" points="293.43,-460.07 300.8,-452.47 290.29,-453.82 293.43,-460.07"/>
</g>
<!-- redis -->
<g id="node25" class="node">
<title>redis</title>
<ellipse fill="#aecc33" stroke="black" cx="1357.2" cy="-568.37" rx="27" ry="18"/>
<text text-anchor="middle" x="1357.2" y="-565.87" font-family="Helvetica,sans-Serif" font-size="10.00" fill="#ffffff">redis</text>
</g>
<!-- redis&#45;&gt;kk_src_intent_cache -->
<g id="edge20" class="edge">
<title>redis&#45;&gt;kk_src_intent_cache</title>
<path fill="none" stroke="black" d="M1357.2,-439.6C1352.84,-426.05 1351.93,-410.56 1352.42,-396.78"/>
<polygon fill="#4089c0" stroke="black" points="1355.92,-396.82 1353.03,-386.63 1348.94,-396.4 1355.92,-396.82"/>
</g>
<!-- windking_ingest_collector -->
<g id="node34" class="node">
<title>windking_ingest_collector</title>
<ellipse fill="#9849ac" stroke="black" cx="1238.2" cy="-357.61" rx="45.01" ry="28.98"/>
<text text-anchor="middle" x="1238.2" y="-366.11" font-family="Helvetica,sans-Serif" font-size="10.00" fill="#ffffff">windking.</text>
<text text-anchor="middle" x="1238.2" y="-355.11" font-family="Helvetica,sans-Serif" font-size="10.00" fill="#ffffff">ingest.</text>
<text text-anchor="middle" x="1238.2" y="-344.11" font-family="Helvetica,sans-Serif" font-size="10.00" fill="#ffffff">collector</text>
</g>
<!-- redis&#45;&gt;windking_ingest_collector -->
<g id="edge38" class="edge">
<title>redis&#45;&gt;windking_ingest_collector</title>
<path fill="none" stroke="black" d="M1360.44,-550.18C1364.39,-525.47 1369.16,-478.81 1357.2,-441.6"/>
<path fill="none" stroke="black" d="M1357.2,-439.6C1350.53,-422.67 1312.94,-398.79 1281.77,-381.35"/>
<polygon fill="#aecc33" stroke="black" points="1283.21,-378.15 1272.76,-376.39 1279.83,-384.28 1283.21,-378.15"/>
</g>
<!-- windking_ingest_etl_loader -->
<g id="node35" class="node">
<title>windking_ingest_etl_loader</title>
<ellipse fill="#9246a4" stroke="black" cx="1767.2" cy="-357.61" rx="45.92" ry="28.98"/>
<text text-anchor="middle" x="1767.2" y="-366.11" font-family="Helvetica,sans-Serif" font-size="10.00" fill="#ffffff">windking.</text>
<text text-anchor="middle" x="1767.2" y="-355.11" font-family="Helvetica,sans-Serif" font-size="10.00" fill="#ffffff">ingest.</text>
<text text-anchor="middle" x="1767.2" y="-344.11" font-family="Helvetica,sans-Serif" font-size="10.00" fill="#ffffff">etl_loader</text>
</g>
<!-- redis&#45;&gt;windking_ingest_etl_loader -->
<g id="edge39" class="edge">
<title>redis&#45;&gt;windking_ingest_etl_loader</title>
<path fill="none" stroke="black" d="M1377.41,-556.1C1392,-548.35 1412.37,-538.27 1431.2,-531.6 1497.04,-508.26 1520.9,-525.16 1584.2,-495.6 1642.7,-468.28 1700.76,-420.36 1735.3,-389.05"/>
<polygon fill="#aecc33" stroke="black" points="1737.72,-391.58 1742.73,-382.25 1732.99,-386.42 1737.72,-391.58"/>
</g>
<!-- requests -->
<g id="node26" class="node">
<title>requests</title>
<ellipse fill="#40c073" stroke="black" cx="1165.2" cy="-568.37" rx="34.96" ry="18"/>
<text text-anchor="middle" x="1165.2" y="-565.87" font-family="Helvetica,sans-Serif" font-size="10.00" fill="#ffffff">requests</text>
</g>
<!-- requests&#45;&gt;kk_src_llm_local_client -->
<g id="edge21" class="edge">
<title>requests&#45;&gt;kk_src_llm_local_client</title>
<path fill="none" stroke="black" d="M1170.41,-550.53C1174.18,-534.77 1176.81,-511.34 1165.2,-495.6"/>
<path fill="none" stroke="black" d="M1165.2,-494.6C1078.99,-377.76 616.91,-360.77 432.38,-358.7"/>
<polygon fill="#5926d9" stroke="black" points="432.25,-355.19 422.22,-358.59 432.18,-362.19 432.25,-355.19"/>
</g>
<!-- requests&#45;&gt;kk_src_storage_ensure_schema -->
<g id="edge22" class="edge">
<title>requests&#45;&gt;kk_src_storage_ensure_schema</title>
<path fill="none" stroke="black" d="M1165.2,-356.61C1157.55,-340.05 1156.19,-320.23 1157.25,-302.63"/>
<polygon fill="#5926d9" stroke="black" points="1160.74,-302.84 1158.12,-292.57 1153.77,-302.23 1160.74,-302.84"/>
</g>
<!-- requests&#45;&gt;kk_src_trade_market -->
<g id="edge23" class="edge">
<title>requests&#45;&gt;kk_src_trade_market</title>
<path fill="none" stroke="black" d="M1165.2,-494.6C1157.35,-472.39 1160.35,-464.65 1165.2,-441.6"/>
<path fill="none" stroke="black" d="M1165.2,-439.6C1172.6,-404.37 1180.29,-391.29 1165.2,-358.61"/>
<path fill="none" stroke="black" d="M1165.2,-356.61C1127.13,-274.18 1051.09,-335.76 971.2,-292.62 967.93,-290.85 964.66,-288.85 961.47,-286.71"/>
<polygon fill="#5926d9" stroke="black" points="963.38,-283.77 953.21,-280.8 959.3,-289.46 963.38,-283.77"/>
</g>
<!-- requests&#45;&gt;windking_ingest_collector -->
<g id="edge40" class="edge">
<title>requests&#45;&gt;windking_ingest_collector</title>
<path fill="none" stroke="black" d="M1165.2,-439.6C1169.64,-418.46 1184.63,-400.08 1199.87,-386.19"/>
<polygon fill="#40c073" stroke="black" points="1202.52,-388.52 1207.82,-379.35 1197.96,-383.22 1202.52,-388.52"/>
</g>
<!-- weaviate -->
<g id="node27" class="node">
<title>weaviate</title>
<polygon fill="#4073c0" stroke="black" points="1923.2,-586.37 1861.2,-586.37 1861.2,-550.37 1923.2,-550.37 1923.2,-586.37"/>
<text text-anchor="middle" x="1892.2" y="-565.87" font-family="Helvetica,sans-Serif" font-size="10.00" fill="#ffffff">weaviate</text>
</g>
<!-- weaviate&#45;&gt;kk_src_storage_ensure_tradelog -->
<g id="edge24" class="edge">
<title>weaviate&#45;&gt;kk_src_storage_ensure_tradelog</title>
<path fill="none" stroke="black" d="M1841.2,-439.6C1828.77,-405.82 1841.2,-394.6 1841.2,-358.61"/>
<path fill="none" stroke="black" d="M1841.2,-356.61C1841.2,-341.57 1833.46,-338.58 1822.2,-328.62 1815.25,-322.47 1776.24,-302.64 1741.17,-285.37"/>
<polygon fill="blue" stroke="black" points="1742.4,-282.08 1731.88,-280.82 1739.32,-288.36 1742.4,-282.08"/>
</g>
<!-- weaviate&#45;&gt;kk_src_storage_weaviate_client -->
<g id="edge25" class="edge">
<title>weaviate&#45;&gt;kk_src_storage_weaviate_client</title>
<path fill="none" stroke="black" d="M1841.2,-356.61C1841.2,-344.16 1897.85,-311.03 1943.52,-286.34"/>
<polygon fill="blue" stroke="black" points="1945.34,-289.34 1952.49,-281.52 1942.03,-283.17 1945.34,-289.34"/>
</g>
<!-- weaviate&#45;&gt;kk_src_storage_weaviate_schema -->
<g id="edge26" class="edge">
<title>weaviate&#45;&gt;kk_src_storage_weaviate_schema</title>
<path fill="none" stroke="black" d="M1841.2,-356.61C1841.2,-339.11 1841.2,-319.89 1841.2,-303.02"/>
<polygon fill="blue" stroke="black" points="1844.7,-302.86 1841.2,-292.86 1837.7,-302.86 1844.7,-302.86"/>
</g>
<!-- weaviate&#45;&gt;windking_ingest_etl_loader -->
<g id="edge41" class="edge">
<title>weaviate&#45;&gt;windking_ingest_etl_loader</title>
<path fill="none" stroke="black" d="M1882.9,-550.08C1870.7,-526.4 1849.83,-482.16 1841.2,-441.6"/>
<path fill="none" stroke="black" d="M1841.2,-439.6C1833.75,-419.35 1818.41,-401.17 1803.61,-387.19"/>
<polygon fill="#4073c0" stroke="black" points="1805.74,-384.39 1795.97,-380.27 1801.04,-389.57 1805.74,-384.39"/>
</g>
<!-- weaviate_collections -->
<g id="node28" class="node">
<title>weaviate_collections</title>
<polygon fill="blue" stroke="black" points="1596.7,-680.35 1527.7,-680.35 1527.7,-644.35 1596.7,-644.35 1596.7,-680.35"/>
<text text-anchor="middle" x="1562.2" y="-665.35" font-family="Helvetica,sans-Serif" font-size="10.00" fill="white">weaviate.</text>
<text text-anchor="middle" x="1562.2" y="-654.35" font-family="Helvetica,sans-Serif" font-size="10.00" fill="white">collections</text>
</g>
<!-- weaviate_collections&#45;&gt;kk_src_storage_ensure_tradelog -->
<g id="edge27" class="edge">
<title>weaviate_collections&#45;&gt;kk_src_storage_ensure_tradelog</title>
<path fill="none" stroke="black" d="M1560.98,-644.27C1558.66,-607.05 1555.07,-520.04 1570.2,-495.6"/>
</g>
<!-- weaviate_collections&#45;&gt;weaviate -->
<g id="edge28" class="edge">
<title>weaviate_collections&#45;&gt;weaviate</title>
<path fill="none" stroke="black" d="M1596.1,-644.31C1599.14,-643.12 1602.19,-642.04 1605.2,-641.14 1711.44,-609.2 1751.69,-652.11 1852.2,-605.14 1858.55,-602.17 1864.62,-597.86 1870.03,-593.25"/>
<polygon fill="blue" stroke="black" points="1872.47,-595.76 1877.44,-586.4 1867.72,-590.62 1872.47,-595.76"/>
</g>
<!-- weaviate_collections_classes -->
<g id="node29" class="node">
<title>weaviate_collections_classes</title>
<ellipse fill="#c247b1" stroke="black" cx="1687.2" cy="-568.37" rx="50.82" ry="28.98"/>
<text text-anchor="middle" x="1687.2" y="-576.87" font-family="Helvetica,sans-Serif" font-size="10.00" fill="#ffffff">weaviate.</text>
<text text-anchor="middle" x="1687.2" y="-565.87" font-family="Helvetica,sans-Serif" font-size="10.00" fill="#ffffff">collections.</text>
<text text-anchor="middle" x="1687.2" y="-554.87" font-family="Helvetica,sans-Serif" font-size="10.00" fill="#ffffff">classes</text>
</g>
<!-- weaviate_collections_classes&#45;&gt;kk_src_storage_ensure_tradelog -->
<g id="edge29" class="edge">
<title>weaviate_collections_classes&#45;&gt;kk_src_storage_ensure_tradelog</title>
<path fill="none" stroke="black" d="M1684.6,-539.16C1684.03,-525.82 1684.3,-509.76 1687.2,-495.6"/>
</g>
<!-- weaviate_collections_classes_config -->
<g id="node30" class="node">
<title>weaviate_collections_classes_config</title>
<ellipse fill="#9d4390" stroke="black" cx="1491.2" cy="-568.37" rx="50.82" ry="36.54"/>
<text text-anchor="middle" x="1491.2" y="-582.37" font-family="Helvetica,sans-Serif" font-size="10.00" fill="#ffffff">weaviate.</text>
<text text-anchor="middle" x="1491.2" y="-571.37" font-family="Helvetica,sans-Serif" font-size="10.00" fill="#ffffff">collections.</text>
<text text-anchor="middle" x="1491.2" y="-560.37" font-family="Helvetica,sans-Serif" font-size="10.00" fill="#ffffff">classes.</text>
<text text-anchor="middle" x="1491.2" y="-549.37" font-family="Helvetica,sans-Serif" font-size="10.00" fill="#ffffff">config</text>
</g>
<!-- weaviate_collections_classes_config&#45;&gt;kk_src_storage_ensure_tradelog -->
<g id="edge30" class="edge">
<title>weaviate_collections_classes_config&#45;&gt;kk_src_storage_ensure_tradelog</title>
<path fill="none" stroke="black" d="M1527.29,-541.87C1542.49,-529.47 1559.18,-513.4 1570.2,-495.6"/>
</g>
<!-- weaviate_connect -->
<g id="node31" class="node">
<title>weaviate_connect</title>
<ellipse fill="#ce3bb9" stroke="black" cx="1660.2" cy="-662.35" rx="45.92" ry="21.43"/>
<text text-anchor="middle" x="1660.2" y="-665.35" font-family="Helvetica,sans-Serif" font-size="10.00" fill="#ffffff">weaviate.</text>
<text text-anchor="middle" x="1660.2" y="-654.35" font-family="Helvetica,sans-Serif" font-size="10.00" fill="#ffffff">connect</text>
</g>
<!-- weaviate_connect&#45;&gt;kk_src_storage_ensure_tradelog -->
<g id="edge31" class="edge">
<title>weaviate_connect&#45;&gt;kk_src_storage_ensure_tradelog</title>
<path fill="none" stroke="black" d="M1645.51,-642.22C1638.48,-631.85 1630.82,-618.46 1627.2,-605.14 1618.62,-573.6 1611.09,-560.04 1627.2,-531.6 1642.52,-504.54 1680.97,-526.07 1687.2,-495.6"/>
<path fill="none" stroke="black" d="M1687.2,-494.6C1697.01,-434.92 1666.52,-417.02 1682.2,-358.61"/>
</g>
<!-- weaviate_connect&#45;&gt;kk_src_storage_weaviate_client -->
<g id="edge32" class="edge">
<title>weaviate_connect&#45;&gt;kk_src_storage_weaviate_client</title>
<path fill="none" stroke="black" d="M1704.92,-657.33C1773.07,-650.37 1898.55,-633.96 1932.2,-605.14 1971.68,-571.33 1973.2,-547.58 1973.2,-495.6 1973.2,-495.6 1973.2,-495.6 1973.2,-439.6 1973.2,-392.4 1982.12,-339.07 1989.71,-302.26"/>
<polygon fill="#ce3bb9" stroke="black" points="1993.16,-302.84 1991.8,-292.34 1986.31,-301.4 1993.16,-302.84"/>
</g>
<!-- weaviate_connect&#45;&gt;weaviate -->
<g id="edge33" class="edge">
<title>weaviate_connect&#45;&gt;weaviate</title>
<path fill="none" stroke="black" d="M1695.94,-648.93C1703.89,-646.27 1712.31,-643.54 1720.2,-641.14 1778.37,-623.42 1798.77,-634.18 1852.2,-605.14 1858,-601.99 1863.65,-597.84 1868.8,-593.48"/>
<polygon fill="#ce3bb9" stroke="black" points="1871.35,-595.9 1876.41,-586.59 1866.65,-590.71 1871.35,-595.9"/>
</g>
<!-- weaviate_exceptions -->
<g id="node32" class="node">
<title>weaviate_exceptions</title>
<ellipse fill="#ce3bb9" stroke="black" cx="1734.2" cy="-777.78" rx="49.49" ry="21.43"/>
<text text-anchor="middle" x="1734.2" y="-780.78" font-family="Helvetica,sans-Serif" font-size="10.00" fill="#ffffff">weaviate.</text>
<text text-anchor="middle" x="1734.2" y="-769.78" font-family="Helvetica,sans-Serif" font-size="10.00" fill="#ffffff">exceptions</text>
</g>
<!-- weaviate_exceptions&#45;&gt;kk_src_storage_ensure_tradelog -->
<g id="edge34" class="edge">
<title>weaviate_exceptions&#45;&gt;kk_src_storage_ensure_tradelog</title>
<path fill="none" stroke="black" d="M1738.79,-756.59C1740.27,-745.32 1740.22,-731.4 1734.2,-720.57"/>
<path fill="none" stroke="black" d="M1734.2,-719.57C1710.65,-677.23 1563.9,-702.23 1519.2,-683.57 1505.03,-677.65 1502.91,-673.28 1491.2,-663.35"/>
<path fill="none" stroke="black" d="M1491.2,-661.35C1463.32,-637.73 1445.73,-638.67 1431.2,-605.14 1418.2,-575.15 1411.19,-557.45 1431.2,-531.6 1470.26,-481.13 1536,-549.48 1570.2,-495.6"/>
<path fill="none" stroke="black" d="M1570.2,-494.6C1611.34,-427.98 1662.42,-434.37 1682.2,-358.61"/>
<path fill="none" stroke="black" d="M1682.2,-356.61C1685.19,-339.22 1685.81,-319.88 1685.46,-302.89"/>
<polygon fill="#ce3bb9" stroke="black" points="1688.95,-302.53 1685.13,-292.65 1681.95,-302.76 1688.95,-302.53"/>
</g>
<!-- weaviate_exceptions&#45;&gt;weaviate -->
<g id="edge35" class="edge">
<title>weaviate_exceptions&#45;&gt;weaviate</title>
<path fill="none" stroke="black" d="M1734.2,-719.57C1731.79,-715.77 1820,-634.87 1865.63,-593.41"/>
<polygon fill="#ce3bb9" stroke="black" points="1868.05,-595.94 1873.1,-586.63 1863.34,-590.76 1868.05,-595.94"/>
</g>
<!-- weaviate_exceptions&#45;&gt;weaviate_collections_classes_config -->
<g id="edge36" class="edge">
<title>weaviate_exceptions&#45;&gt;weaviate_collections_classes_config</title>
<path fill="none" stroke="black" d="M1491.2,-661.35C1477.96,-650.13 1475.96,-631.86 1478.04,-614.55"/>
<polygon fill="#ce3bb9" stroke="black" points="1481.52,-614.96 1479.69,-604.53 1474.61,-613.83 1481.52,-614.96"/>
</g>
<!-- meilisearch -->
<g id="node33" class="node">
<title>meilisearch</title>
<ellipse fill="#c04040" stroke="black" cx="1799.2" cy="-568.37" rx="43.62" ry="18"/>
<text text-anchor="middle" x="1799.2" y="-565.87" font-family="Helvetica,sans-Serif" font-size="10.00" fill="#ffffff">meilisearch</text>
</g>
<!-- meilisearch&#45;&gt;windking_ingest_etl_loader -->
<g id="edge37" class="edge">
<title>meilisearch&#45;&gt;windking_ingest_etl_loader</title>
<path fill="none" stroke="black" d="M1796.58,-550.29C1791.47,-516.95 1780.06,-442.5 1773.05,-396.82"/>
<polygon fill="#c04040" stroke="black" points="1776.48,-396.06 1771.5,-386.7 1769.56,-397.12 1776.48,-396.06"/>
</g>
</g>
</svg>
