<?xml version="1.0" encoding="UTF-8" standalone="no"?>
<!DOCTYPE svg PUBLIC "-//W3C//DTD SVG 1.1//EN"
 "http://www.w3.org/Graphics/SVG/1.1/DTD/svg11.dtd">
<!-- Generated by graphviz version 2.43.0 (0)
 -->
<!-- Title: G Pages: 1 -->
<svg width="1610pt" height="714pt"
 viewBox="0.00 0.00 1609.77 713.55" xmlns="http://www.w3.org/2000/svg" xmlns:xlink="http://www.w3.org/1999/xlink">
<g id="graph0" class="graph" transform="scale(1 1) rotate(0) translate(4 709.55)">
<title>G</title><style>.edge>path:hover{stroke-width:8}</style>
<polygon fill="white" stroke="transparent" points="-4,4 -4,-709.55 1605.77,-709.55 1605.77,4 -4,4"/>
<!-- kk_src_agent_agent_decide_and_execute -->
<g id="node1" class="node">
<title>kk_src_agent_agent_decide_and_execute</title><style>.edge>path:hover{stroke-width:8}</style>
<ellipse fill="#883a3a" stroke="black" cx="267.31" cy="-146.31" rx="105.22" ry="36.54"/>
<text text-anchor="middle" x="267.31" y="-160.31" font-family="Helvetica,sans-Serif" font-size="10.00" fill="#ffffff">kk.</text>
<text text-anchor="middle" x="267.31" y="-149.31" font-family="Helvetica,sans-Serif" font-size="10.00" fill="#ffffff">src.</text>
<text text-anchor="middle" x="267.31" y="-138.31" font-family="Helvetica,sans-Serif" font-size="10.00" fill="#ffffff">agent.</text>
<text text-anchor="middle" x="267.31" y="-127.31" font-family="Helvetica,sans-Serif" font-size="10.00" fill="#ffffff">agent_decide_and_execute</text>
</g>
<!-- kk_src_agent_llm_agent -->
<g id="node2" class="node">
<title>kk_src_agent_llm_agent</title><style>.edge>path:hover{stroke-width:8}</style>
<ellipse fill="#b34c4c" stroke="black" cx="811.31" cy="-365.39" rx="45.92" ry="36.54"/>
<text text-anchor="middle" x="811.31" y="-379.39" font-family="Helvetica,sans-Serif" font-size="10.00" fill="#ffffff">kk.</text>
<text text-anchor="middle" x="811.31" y="-368.39" font-family="Helvetica,sans-Serif" font-size="10.00" fill="#ffffff">src.</text>
<text text-anchor="middle" x="811.31" y="-357.39" font-family="Helvetica,sans-Serif" font-size="10.00" fill="#ffffff">agent.</text>
<text text-anchor="middle" x="811.31" y="-346.39" font-family="Helvetica,sans-Serif" font-size="10.00" fill="#ffffff">llm_agent</text>
</g>
<!-- kk_src_agent_position_guard -->
<g id="node3" class="node">
<title>kk_src_agent_position_guard</title><style>.edge>path:hover{stroke-width:8}</style>
<ellipse fill="#c24747" stroke="black" cx="267.31" cy="-255.85" rx="62.87" ry="36.54"/>
<text text-anchor="middle" x="267.31" y="-269.85" font-family="Helvetica,sans-Serif" font-size="10.00" fill="#ffffff">kk.</text>
<text text-anchor="middle" x="267.31" y="-258.85" font-family="Helvetica,sans-Serif" font-size="10.00" fill="#ffffff">src.</text>
<text text-anchor="middle" x="267.31" y="-247.85" font-family="Helvetica,sans-Serif" font-size="10.00" fill="#ffffff">agent.</text>
<text text-anchor="middle" x="267.31" y="-236.85" font-family="Helvetica,sans-Serif" font-size="10.00" fill="#ffffff">position_guard</text>
</g>
<!-- kk_src_agent_position_guard&#45;&gt;kk_src_agent_agent_decide_and_execute -->
<g id="edge1" class="edge">
<title>kk_src_agent_position_guard&#45;&gt;kk_src_agent_agent_decide_and_execute</title><style>.edge>path:hover{stroke-width:8}</style>
<path fill="none" stroke="black" d="M267.31,-219.04C267.31,-210.87 267.31,-202.08 267.31,-193.55"/>
<polygon fill="#c24747" stroke="black" points="270.81,-193.33 267.31,-183.33 263.81,-193.33 270.81,-193.33"/>
</g>
<!-- kk_src_intent_cache -->
<g id="node4" class="node">
<title>kk_src_intent_cache</title><style>.edge>path:hover{stroke-width:8}</style>
<ellipse fill="#b34c4c" stroke="black" cx="955.31" cy="-474.93" rx="55.72" ry="28.98"/>
<text text-anchor="middle" x="955.31" y="-483.43" font-family="Helvetica,sans-Serif" font-size="10.00" fill="#ffffff">kk.</text>
<text text-anchor="middle" x="955.31" y="-472.43" font-family="Helvetica,sans-Serif" font-size="10.00" fill="#ffffff">src.</text>
<text text-anchor="middle" x="955.31" y="-461.43" font-family="Helvetica,sans-Serif" font-size="10.00" fill="#ffffff">intent_cache</text>
</g>
<!-- kk_src_llm_local_client -->
<g id="node5" class="node">
<title>kk_src_llm_local_client</title><style>.edge>path:hover{stroke-width:8}</style>
<ellipse fill="#b34c4c" stroke="black" cx="617.31" cy="-474.93" rx="65.52" ry="28.98"/>
<text text-anchor="middle" x="617.31" y="-483.43" font-family="Helvetica,sans-Serif" font-size="10.00" fill="#ffffff">kk.</text>
<text text-anchor="middle" x="617.31" y="-472.43" font-family="Helvetica,sans-Serif" font-size="10.00" fill="#ffffff">src.</text>
<text text-anchor="middle" x="617.31" y="-461.43" font-family="Helvetica,sans-Serif" font-size="10.00" fill="#ffffff">llm_local_client</text>
</g>
<!-- kk_src_monitor -->
<g id="node6" class="node">
<title>kk_src_monitor</title><style>.edge>path:hover{stroke-width:8}</style>
<ellipse fill="#ce3b3b" stroke="black" cx="150.31" cy="-365.39" rx="51.43" ry="18"/>
<text text-anchor="middle" x="150.31" y="-362.89" font-family="Helvetica,sans-Serif" font-size="10.00" fill="#ffffff">kk.src.monitor</text>
</g>
<!-- kk_src_monitor&#45;&gt;kk_src_agent_agent_decide_and_execute -->
<g id="edge2" class="edge">
<title>kk_src_monitor&#45;&gt;kk_src_agent_agent_decide_and_execute</title><style>.edge>path:hover{stroke-width:8}</style>
<path fill="none" stroke="black" d="M172.63,-349.15C183.61,-342.16 197.26,-334.21 210.31,-328.62 278.23,-299.51 390.5,-324.3 360.31,-256.85"/>
<path fill="none" stroke="black" d="M360.31,-254.85C352.77,-238.02 350.59,-233.65 339.31,-219.08 331.12,-208.51 321.49,-197.92 311.97,-188.24"/>
<polygon fill="#ce3b3b" stroke="black" points="314.29,-185.62 304.74,-181.03 309.35,-190.57 314.29,-185.62"/>
</g>
<!-- kk_src_trade_order -->
<g id="node16" class="node">
<title>kk_src_trade_order</title><style>.edge>path:hover{stroke-width:8}</style>
<ellipse fill="#ac4949" stroke="black" cx="112.31" cy="-146.31" rx="31.64" ry="36.54"/>
<text text-anchor="middle" x="112.31" y="-160.31" font-family="Helvetica,sans-Serif" font-size="10.00" fill="#ffffff">kk.</text>
<text text-anchor="middle" x="112.31" y="-149.31" font-family="Helvetica,sans-Serif" font-size="10.00" fill="#ffffff">src.</text>
<text text-anchor="middle" x="112.31" y="-138.31" font-family="Helvetica,sans-Serif" font-size="10.00" fill="#ffffff">trade.</text>
<text text-anchor="middle" x="112.31" y="-127.31" font-family="Helvetica,sans-Serif" font-size="10.00" fill="#ffffff">order</text>
</g>
<!-- kk_src_monitor&#45;&gt;kk_src_trade_order -->
<g id="edge3" class="edge">
<title>kk_src_monitor&#45;&gt;kk_src_trade_order</title><style>.edge>path:hover{stroke-width:8}</style>
<path fill="none" stroke="black" d="M147.66,-347.36C143.39,-320.19 134.64,-265.38 126.31,-219.08 124.74,-210.36 122.98,-201.07 121.26,-192.16"/>
<polygon fill="#ce3b3b" stroke="black" points="124.69,-191.46 119.34,-182.31 117.82,-192.8 124.69,-191.46"/>
</g>
<!-- kk_src_monitor_metrics -->
<g id="node7" class="node">
<title>kk_src_monitor_metrics</title><style>.edge>path:hover{stroke-width:8}</style>
<ellipse fill="#ce3b3b" stroke="black" cx="40.31" cy="-365.39" rx="40.11" ry="36.54"/>
<text text-anchor="middle" x="40.31" y="-379.39" font-family="Helvetica,sans-Serif" font-size="10.00" fill="#ffffff">kk.</text>
<text text-anchor="middle" x="40.31" y="-368.39" font-family="Helvetica,sans-Serif" font-size="10.00" fill="#ffffff">src.</text>
<text text-anchor="middle" x="40.31" y="-357.39" font-family="Helvetica,sans-Serif" font-size="10.00" fill="#ffffff">monitor.</text>
<text text-anchor="middle" x="40.31" y="-346.39" font-family="Helvetica,sans-Serif" font-size="10.00" fill="#ffffff">metrics</text>
</g>
<!-- kk_src_monitor_metrics&#45;&gt;kk_src_agent_agent_decide_and_execute -->
<g id="edge4" class="edge">
<title>kk_src_monitor_metrics&#45;&gt;kk_src_agent_agent_decide_and_execute</title><style>.edge>path:hover{stroke-width:8}</style>
<path fill="none" stroke="black" d="M112.31,-254.85C133.39,-223.94 166.51,-199.21 196.74,-181.29"/>
<polygon fill="#ce3b3b" stroke="black" points="198.68,-184.21 205.59,-176.18 195.18,-178.15 198.68,-184.21"/>
</g>
<!-- kk_src_monitor_metrics&#45;&gt;kk_src_trade_order -->
<g id="edge5" class="edge">
<title>kk_src_monitor_metrics&#45;&gt;kk_src_trade_order</title><style>.edge>path:hover{stroke-width:8}</style>
<path fill="none" stroke="black" d="M60.96,-333.23C75.28,-311.71 94.83,-282.46 112.31,-256.85"/>
<path fill="none" stroke="black" d="M112.31,-254.85C124.69,-236.69 125.68,-212.49 123.14,-191.64"/>
<polygon fill="#ce3b3b" stroke="black" points="126.6,-191.09 121.65,-181.72 119.68,-192.13 126.6,-191.09"/>
</g>
<!-- kk_src_risk -->
<g id="node8" class="node">
<title>kk_src_risk</title><style>.edge>path:hover{stroke-width:8}</style>
<ellipse fill="#c24747" stroke="black" cx="617.31" cy="-365.39" rx="39.38" ry="18"/>
<text text-anchor="middle" x="617.31" y="-362.89" font-family="Helvetica,sans-Serif" font-size="10.00" fill="#ffffff">kk.src.risk</text>
</g>
<!-- kk_src_risk&#45;&gt;kk_src_agent_agent_decide_and_execute -->
<g id="edge6" class="edge">
<title>kk_src_risk&#45;&gt;kk_src_agent_agent_decide_and_execute</title><style>.edge>path:hover{stroke-width:8}</style>
<path fill="none" stroke="black" d="M599.51,-349.04C590.82,-342.12 579.97,-334.24 569.31,-328.62 482.45,-282.78 400.43,-346.49 360.31,-256.85"/>
</g>
<!-- kk_src_risk_trailing -->
<g id="node9" class="node">
<title>kk_src_risk_trailing</title><style>.edge>path:hover{stroke-width:8}</style>
<ellipse fill="#c24747" stroke="black" cx="255.31" cy="-365.39" rx="36.12" ry="36.54"/>
<text text-anchor="middle" x="255.31" y="-379.39" font-family="Helvetica,sans-Serif" font-size="10.00" fill="#ffffff">kk.</text>
<text text-anchor="middle" x="255.31" y="-368.39" font-family="Helvetica,sans-Serif" font-size="10.00" fill="#ffffff">src.</text>
<text text-anchor="middle" x="255.31" y="-357.39" font-family="Helvetica,sans-Serif" font-size="10.00" fill="#ffffff">risk.</text>
<text text-anchor="middle" x="255.31" y="-346.39" font-family="Helvetica,sans-Serif" font-size="10.00" fill="#ffffff">trailing</text>
</g>
<!-- kk_src_risk_trailing&#45;&gt;kk_src_agent_agent_decide_and_execute -->
<g id="edge7" class="edge">
<title>kk_src_risk_trailing&#45;&gt;kk_src_agent_agent_decide_and_execute</title><style>.edge>path:hover{stroke-width:8}</style>
<path fill="none" stroke="black" d="M283.52,-341.97C304.26,-325.19 330.31,-303.35 339.31,-292.62 351.14,-278.49 367.84,-273.67 360.31,-256.85"/>
</g>
<!-- kk_src_storage -->
<g id="node10" class="node">
<title>kk_src_storage</title><style>.edge>path:hover{stroke-width:8}</style>
<ellipse fill="#c24747" stroke="black" cx="360.31" cy="-365.39" rx="50.75" ry="18"/>
<text text-anchor="middle" x="360.31" y="-362.89" font-family="Helvetica,sans-Serif" font-size="10.00" fill="#ffffff">kk.src.storage</text>
</g>
<!-- kk_src_storage&#45;&gt;kk_src_agent_agent_decide_and_execute -->
<g id="edge8" class="edge">
<title>kk_src_storage&#45;&gt;kk_src_agent_agent_decide_and_execute</title><style>.edge>path:hover{stroke-width:8}</style>
<path fill="none" stroke="black" d="M364.47,-347.1C368.86,-325.07 373.5,-286.33 360.31,-256.85"/>
</g>
<!-- kk_src_storage_ensure_schema -->
<g id="node11" class="node">
<title>kk_src_storage_ensure_schema</title><style>.edge>path:hover{stroke-width:8}</style>
<ellipse fill="#c04040" stroke="black" cx="494.31" cy="-365.39" rx="65.52" ry="36.54"/>
<text text-anchor="middle" x="494.31" y="-379.39" font-family="Helvetica,sans-Serif" font-size="10.00" fill="#ffffff">kk.</text>
<text text-anchor="middle" x="494.31" y="-368.39" font-family="Helvetica,sans-Serif" font-size="10.00" fill="#ffffff">src.</text>
<text text-anchor="middle" x="494.31" y="-357.39" font-family="Helvetica,sans-Serif" font-size="10.00" fill="#ffffff">storage.</text>
<text text-anchor="middle" x="494.31" y="-346.39" font-family="Helvetica,sans-Serif" font-size="10.00" fill="#ffffff">ensure_schema</text>
</g>
<!-- kk_src_storage_ensure_schema&#45;&gt;kk_src_agent_agent_decide_and_execute -->
<g id="edge9" class="edge">
<title>kk_src_storage_ensure_schema&#45;&gt;kk_src_agent_agent_decide_and_execute</title><style>.edge>path:hover{stroke-width:8}</style>
<path fill="none" stroke="black" d="M445.52,-340.66C414.48,-322.53 377.06,-294.28 360.31,-256.85"/>
</g>
<!-- kk_src_storage_ensure_tradelog -->
<g id="node12" class="node">
<title>kk_src_storage_ensure_tradelog</title><style>.edge>path:hover{stroke-width:8}</style>
<ellipse fill="#8f3d3d" stroke="black" cx="1217.31" cy="-36.77" rx="67.35" ry="36.54"/>
<text text-anchor="middle" x="1217.31" y="-50.77" font-family="Helvetica,sans-Serif" font-size="10.00" fill="#ffffff">kk.</text>
<text text-anchor="middle" x="1217.31" y="-39.77" font-family="Helvetica,sans-Serif" font-size="10.00" fill="#ffffff">src.</text>
<text text-anchor="middle" x="1217.31" y="-28.77" font-family="Helvetica,sans-Serif" font-size="10.00" fill="#ffffff">storage.</text>
<text text-anchor="middle" x="1217.31" y="-17.77" font-family="Helvetica,sans-Serif" font-size="10.00" fill="#ffffff">ensure_tradelog</text>
</g>
<!-- kk_src_storage_weaviate_client -->
<g id="node13" class="node">
<title>kk_src_storage_weaviate_client</title><style>.edge>path:hover{stroke-width:8}</style>
<ellipse fill="#ac4949" stroke="black" cx="1535.31" cy="-36.77" rx="66.44" ry="36.54"/>
<text text-anchor="middle" x="1535.31" y="-50.77" font-family="Helvetica,sans-Serif" font-size="10.00" fill="#ffffff">kk.</text>
<text text-anchor="middle" x="1535.31" y="-39.77" font-family="Helvetica,sans-Serif" font-size="10.00" fill="#ffffff">src.</text>
<text text-anchor="middle" x="1535.31" y="-28.77" font-family="Helvetica,sans-Serif" font-size="10.00" fill="#ffffff">storage.</text>
<text text-anchor="middle" x="1535.31" y="-17.77" font-family="Helvetica,sans-Serif" font-size="10.00" fill="#ffffff">weaviate_client</text>
</g>
<!-- kk_src_storage_weaviate_schema -->
<g id="node14" class="node">
<title>kk_src_storage_weaviate_schema</title><style>.edge>path:hover{stroke-width:8}</style>
<ellipse fill="#b34c4c" stroke="black" cx="1376.31" cy="-36.77" rx="74.49" ry="36.54"/>
<text text-anchor="middle" x="1376.31" y="-50.77" font-family="Helvetica,sans-Serif" font-size="10.00" fill="#ffffff">kk.</text>
<text text-anchor="middle" x="1376.31" y="-39.77" font-family="Helvetica,sans-Serif" font-size="10.00" fill="#ffffff">src.</text>
<text text-anchor="middle" x="1376.31" y="-28.77" font-family="Helvetica,sans-Serif" font-size="10.00" fill="#ffffff">storage.</text>
<text text-anchor="middle" x="1376.31" y="-17.77" font-family="Helvetica,sans-Serif" font-size="10.00" fill="#ffffff">weaviate_schema</text>
</g>
<!-- kk_src_trade_market -->
<g id="node15" class="node">
<title>kk_src_trade_market</title><style>.edge>path:hover{stroke-width:8}</style>
<ellipse fill="#b34c4c" stroke="black" cx="711.31" cy="-365.39" rx="36.12" ry="36.54"/>
<text text-anchor="middle" x="711.31" y="-379.39" font-family="Helvetica,sans-Serif" font-size="10.00" fill="#ffffff">kk.</text>
<text text-anchor="middle" x="711.31" y="-368.39" font-family="Helvetica,sans-Serif" font-size="10.00" fill="#ffffff">src.</text>
<text text-anchor="middle" x="711.31" y="-357.39" font-family="Helvetica,sans-Serif" font-size="10.00" fill="#ffffff">trade.</text>
<text text-anchor="middle" x="711.31" y="-346.39" font-family="Helvetica,sans-Serif" font-size="10.00" fill="#ffffff">market</text>
</g>
<!-- kk_ws_main -->
<g id="node17" class="node">
<title>kk_ws_main</title><style>.edge>path:hover{stroke-width:8}</style>
<ellipse fill="#b34c4c" stroke="black" cx="883.31" cy="-568.91" rx="44.3" ry="18"/>
<text text-anchor="middle" x="883.31" y="-566.41" font-family="Helvetica,sans-Serif" font-size="10.00" fill="#ffffff">kk.ws_main</text>
</g>
<!-- openai -->
<g id="node18" class="node">
<title>openai</title><style>.edge>path:hover{stroke-width:8}</style>
<ellipse fill="#aecc33" stroke="black" cx="811.31" cy="-684.34" rx="29.37" ry="18"/>
<text text-anchor="middle" x="811.31" y="-681.84" font-family="Helvetica,sans-Serif" font-size="10.00" fill="#000000">openai</text>
</g>
<!-- openai&#45;&gt;kk_src_agent_llm_agent -->
<g id="edge10" class="edge">
<title>openai&#45;&gt;kk_src_agent_llm_agent</title><style>.edge>path:hover{stroke-width:8}</style>
<path fill="none" stroke="black" d="M808.9,-666.27C807.88,-654.95 807.65,-639.88 811.31,-627.12"/>
<path fill="none" stroke="black" d="M811.31,-626.12C832.08,-553.58 825.69,-464.89 818.78,-412.16"/>
<polygon fill="#aecc33" stroke="black" points="822.23,-411.54 817.4,-402.11 815.29,-412.49 822.23,-411.54"/>
</g>
<!-- openai&#45;&gt;kk_ws_main -->
<g id="edge11" class="edge">
<title>openai&#45;&gt;kk_ws_main</title><style>.edge>path:hover{stroke-width:8}</style>
<path fill="none" stroke="black" d="M811.31,-626.12C816.11,-609.33 830.11,-596.58 844.5,-587.51"/>
<polygon fill="#aecc33" stroke="black" points="846.54,-590.37 853.43,-582.33 843.03,-584.32 846.54,-590.37"/>
</g>
<!-- redis -->
<g id="node19" class="node">
<title>redis</title><style>.edge>path:hover{stroke-width:8}</style>
<ellipse fill="#40c073" stroke="black" cx="955.31" cy="-684.34" rx="27" ry="18"/>
<text text-anchor="middle" x="955.31" y="-681.84" font-family="Helvetica,sans-Serif" font-size="10.00" fill="#000000">redis</text>
</g>
<!-- redis&#45;&gt;kk_src_intent_cache -->
<g id="edge12" class="edge">
<title>redis&#45;&gt;kk_src_intent_cache</title><style>.edge>path:hover{stroke-width:8}</style>
<path fill="none" stroke="black" d="M955.31,-666.01C955.31,-632.77 955.31,-559.34 955.31,-514.1"/>
<polygon fill="#40c073" stroke="black" points="958.81,-514.07 955.31,-504.07 951.81,-514.07 958.81,-514.07"/>
</g>
<!-- requests -->
<g id="node20" class="node">
<title>requests</title><style>.edge>path:hover{stroke-width:8}</style>
<ellipse fill="#266ed9" stroke="black" cx="711.31" cy="-684.34" rx="34.96" ry="18"/>
<text text-anchor="middle" x="711.31" y="-681.84" font-family="Helvetica,sans-Serif" font-size="10.00" fill="#ffffff">requests</text>
</g>
<!-- requests&#45;&gt;kk_src_llm_local_client -->
<g id="edge13" class="edge">
<title>requests&#45;&gt;kk_src_llm_local_client</title><style>.edge>path:hover{stroke-width:8}</style>
<path fill="none" stroke="black" d="M713.73,-666.14C716.35,-643.67 719.18,-603.26 711.31,-569.91"/>
<path fill="none" stroke="black" d="M711.31,-567.91C703.78,-542.09 683.28,-520.56 663.34,-504.84"/>
<polygon fill="#266ed9" stroke="black" points="665.26,-501.9 655.17,-498.67 661.05,-507.49 665.26,-501.9"/>
</g>
<!-- requests&#45;&gt;kk_src_storage_ensure_schema -->
<g id="edge14" class="edge">
<title>requests&#45;&gt;kk_src_storage_ensure_schema</title><style>.edge>path:hover{stroke-width:8}</style>
<path fill="none" stroke="black" d="M711.31,-567.91C699.86,-528.66 726.86,-513.73 711.31,-475.93"/>
<path fill="none" stroke="black" d="M711.31,-473.93C704.46,-457.28 706.26,-449.53 692.31,-438.16 648.14,-402.18 622.52,-422.48 569.31,-402.16 563.47,-399.93 557.46,-397.43 551.5,-394.81"/>
<polygon fill="#266ed9" stroke="black" points="552.78,-391.55 542.22,-390.64 549.9,-397.93 552.78,-391.55"/>
</g>
<!-- requests&#45;&gt;kk_src_trade_market -->
<g id="edge15" class="edge">
<title>requests&#45;&gt;kk_src_trade_market</title><style>.edge>path:hover{stroke-width:8}</style>
<path fill="none" stroke="black" d="M711.31,-473.93C703.32,-454.52 702.35,-431.42 703.77,-411.62"/>
<polygon fill="#266ed9" stroke="black" points="707.26,-411.88 704.71,-401.6 700.29,-411.23 707.26,-411.88"/>
</g>
<!-- weaviate -->
<g id="node21" class="node">
<title>weaviate</title><style>.edge>path:hover{stroke-width:8}</style>
<polygon fill="blue" stroke="black" points="1407.31,-492.93 1345.31,-492.93 1345.31,-456.93 1407.31,-456.93 1407.31,-492.93"/>
<text text-anchor="middle" x="1376.31" y="-472.43" font-family="Helvetica,sans-Serif" font-size="10.00" fill="white">weaviate</text>
</g>
<!-- weaviate&#45;&gt;kk_src_storage_ensure_tradelog -->
<g id="edge16" class="edge">
<title>weaviate&#45;&gt;kk_src_storage_ensure_tradelog</title><style>.edge>path:hover{stroke-width:8}</style>
<path fill="none" stroke="black" d="M1376.31,-456.92C1376.31,-408.52 1376.31,-265.82 1376.31,-147.31"/>
<path fill="none" stroke="black" d="M1376.31,-145.31C1376.31,-120.52 1322.62,-88.23 1277.64,-65.53"/>
<polygon fill="blue" stroke="black" points="1279,-62.29 1268.49,-60.98 1275.88,-68.56 1279,-62.29"/>
</g>
<!-- weaviate&#45;&gt;kk_src_storage_weaviate_client -->
<g id="edge17" class="edge">
<title>weaviate&#45;&gt;kk_src_storage_weaviate_client</title><style>.edge>path:hover{stroke-width:8}</style>
<path fill="none" stroke="black" d="M1376.31,-145.31C1376.31,-120.44 1430.33,-88.03 1475.39,-65.31"/>
<polygon fill="blue" stroke="black" points="1477.16,-68.34 1484.56,-60.76 1474.05,-62.07 1477.16,-68.34"/>
</g>
<!-- weaviate&#45;&gt;kk_src_storage_weaviate_schema -->
<g id="edge18" class="edge">
<title>weaviate&#45;&gt;kk_src_storage_weaviate_schema</title><style>.edge>path:hover{stroke-width:8}</style>
<path fill="none" stroke="black" d="M1376.31,-145.31C1376.31,-125.15 1376.31,-102.85 1376.31,-83.82"/>
<polygon fill="blue" stroke="black" points="1379.81,-83.62 1376.31,-73.62 1372.81,-83.62 1379.81,-83.62"/>
</g>
<!-- weaviate_collections -->
<g id="node22" class="node">
<title>weaviate_collections</title><style>.edge>path:hover{stroke-width:8}</style>
<polygon fill="blue" stroke="black" points="1253.81,-586.91 1184.81,-586.91 1184.81,-550.91 1253.81,-550.91 1253.81,-586.91"/>
<text text-anchor="middle" x="1219.31" y="-571.91" font-family="Helvetica,sans-Serif" font-size="10.00" fill="white">weaviate.</text>
<text text-anchor="middle" x="1219.31" y="-560.91" font-family="Helvetica,sans-Serif" font-size="10.00" fill="white">collections</text>
</g>
<!-- weaviate_collections&#45;&gt;kk_src_storage_ensure_tradelog -->
<g id="edge19" class="edge">
<title>weaviate_collections&#45;&gt;kk_src_storage_ensure_tradelog</title><style>.edge>path:hover{stroke-width:8}</style>
<path fill="none" stroke="black" d="M1250.06,-550.76C1265.88,-540.84 1284.65,-527.26 1298.31,-511.7 1310.18,-498.17 1318.6,-493.88 1317.31,-475.93"/>
<path fill="none" stroke="black" d="M1317.31,-473.93C1313.03,-414.77 1226.5,-424.51 1238.31,-366.39"/>
</g>
<!-- weaviate_collections&#45;&gt;weaviate -->
<g id="edge20" class="edge">
<title>weaviate_collections&#45;&gt;weaviate</title><style>.edge>path:hover{stroke-width:8}</style>
<path fill="none" stroke="black" d="M1253.94,-551.49C1281.46,-538.27 1317.55,-520.48 1331.31,-511.7 1337.07,-508.01 1342.97,-503.74 1348.53,-499.46"/>
<polygon fill="blue" stroke="black" points="1350.7,-502.2 1356.36,-493.24 1346.35,-496.71 1350.7,-502.2"/>
</g>
<!-- weaviate_collections_classes -->
<g id="node23" class="node">
<title>weaviate_collections_classes</title><style>.edge>path:hover{stroke-width:8}</style>
<ellipse fill="#a947c2" stroke="black" cx="1080.31" cy="-474.93" rx="50.82" ry="28.98"/>
<text text-anchor="middle" x="1080.31" y="-483.43" font-family="Helvetica,sans-Serif" font-size="10.00" fill="#ffffff">weaviate.</text>
<text text-anchor="middle" x="1080.31" y="-472.43" font-family="Helvetica,sans-Serif" font-size="10.00" fill="#ffffff">collections.</text>
<text text-anchor="middle" x="1080.31" y="-461.43" font-family="Helvetica,sans-Serif" font-size="10.00" fill="#ffffff">classes</text>
</g>
<!-- weaviate_collections_classes&#45;&gt;kk_src_storage_ensure_tradelog -->
<g id="edge21" class="edge">
<title>weaviate_collections_classes&#45;&gt;kk_src_storage_ensure_tradelog</title><style>.edge>path:hover{stroke-width:8}</style>
<path fill="none" stroke="black" d="M1115.44,-453.66C1161.21,-426.72 1235.78,-380.85 1238.31,-366.39"/>
<path fill="none" stroke="black" d="M1238.31,-364.39C1255.64,-265.24 1238.93,-146.92 1226.99,-83.43"/>
<polygon fill="#a947c2" stroke="black" points="1230.38,-82.51 1225.05,-73.35 1223.5,-83.83 1230.38,-82.51"/>
</g>
<!-- weaviate_collections_classes_config -->
<g id="node24" class="node">
<title>weaviate_collections_classes_config</title><style>.edge>path:hover{stroke-width:8}</style>
<ellipse fill="#8b439d" stroke="black" cx="1238.31" cy="-474.93" rx="50.82" ry="36.54"/>
<text text-anchor="middle" x="1238.31" y="-488.93" font-family="Helvetica,sans-Serif" font-size="10.00" fill="#ffffff">weaviate.</text>
<text text-anchor="middle" x="1238.31" y="-477.93" font-family="Helvetica,sans-Serif" font-size="10.00" fill="#ffffff">collections.</text>
<text text-anchor="middle" x="1238.31" y="-466.93" font-family="Helvetica,sans-Serif" font-size="10.00" fill="#ffffff">classes.</text>
<text text-anchor="middle" x="1238.31" y="-455.93" font-family="Helvetica,sans-Serif" font-size="10.00" fill="#ffffff">config</text>
</g>
<!-- weaviate_collections_classes_config&#45;&gt;kk_src_storage_ensure_tradelog -->
<g id="edge22" class="edge">
<title>weaviate_collections_classes_config&#45;&gt;kk_src_storage_ensure_tradelog</title><style>.edge>path:hover{stroke-width:8}</style>
<path fill="none" stroke="black" d="M1235.22,-437.81C1234.19,-416.81 1234.19,-389.93 1238.31,-366.39"/>
</g>
<!-- weaviate_connect -->
<g id="node25" class="node">
<title>weaviate_connect</title><style>.edge>path:hover{stroke-width:8}</style>
<ellipse fill="#b13bce" stroke="black" cx="1317.31" cy="-568.91" rx="45.92" ry="21.43"/>
<text text-anchor="middle" x="1317.31" y="-571.91" font-family="Helvetica,sans-Serif" font-size="10.00" fill="#ffffff">weaviate.</text>
<text text-anchor="middle" x="1317.31" y="-560.91" font-family="Helvetica,sans-Serif" font-size="10.00" fill="#ffffff">connect</text>
</g>
<!-- weaviate_connect&#45;&gt;kk_src_storage_ensure_tradelog -->
<g id="edge23" class="edge">
<title>weaviate_connect&#45;&gt;kk_src_storage_ensure_tradelog</title><style>.edge>path:hover{stroke-width:8}</style>
<path fill="none" stroke="black" d="M1318.15,-547.42C1318.72,-528.76 1319.08,-500.45 1317.31,-475.93"/>
</g>
<!-- weaviate_connect&#45;&gt;kk_src_storage_weaviate_client -->
<g id="edge24" class="edge">
<title>weaviate_connect&#45;&gt;kk_src_storage_weaviate_client</title><style>.edge>path:hover{stroke-width:8}</style>
<path fill="none" stroke="black" d="M1351.98,-554.57C1372.78,-545.15 1398.54,-530.81 1416.31,-511.7 1464.98,-459.33 1485.31,-437.88 1485.31,-366.39 1485.31,-366.39 1485.31,-366.39 1485.31,-254.85 1485.31,-194.03 1504.17,-126.02 1518.73,-82.6"/>
<polygon fill="#b13bce" stroke="black" points="1522.11,-83.51 1522.04,-72.92 1515.49,-81.25 1522.11,-83.51"/>
</g>
<!-- weaviate_connect&#45;&gt;weaviate -->
<g id="edge25" class="edge">
<title>weaviate_connect&#45;&gt;weaviate</title><style>.edge>path:hover{stroke-width:8}</style>
<path fill="none" stroke="black" d="M1329.82,-548.4C1338.56,-534.78 1350.31,-516.45 1359.82,-501.63"/>
<polygon fill="#b13bce" stroke="black" points="1362.94,-503.24 1365.4,-492.93 1357.05,-499.46 1362.94,-503.24"/>
</g>
<!-- weaviate_exceptions -->
<g id="node26" class="node">
<title>weaviate_exceptions</title><style>.edge>path:hover{stroke-width:8}</style>
<ellipse fill="#b13bce" stroke="black" cx="1391.31" cy="-684.34" rx="49.49" ry="21.43"/>
<text text-anchor="middle" x="1391.31" y="-687.34" font-family="Helvetica,sans-Serif" font-size="10.00" fill="#ffffff">weaviate.</text>
<text text-anchor="middle" x="1391.31" y="-676.34" font-family="Helvetica,sans-Serif" font-size="10.00" fill="#ffffff">exceptions</text>
</g>
<!-- weaviate_exceptions&#45;&gt;kk_src_storage_ensure_tradelog -->
<g id="edge26" class="edge">
<title>weaviate_exceptions&#45;&gt;kk_src_storage_ensure_tradelog</title><style>.edge>path:hover{stroke-width:8}</style>
<path fill="none" stroke="black" d="M1396.34,-663.13C1398.01,-651.71 1398.01,-637.66 1391.31,-627.12"/>
<path fill="none" stroke="black" d="M1391.31,-626.12C1333.64,-535.53 1203.27,-666.48 1156.31,-569.91"/>
<path fill="none" stroke="black" d="M1156.31,-567.91C1130.72,-515.31 1153.81,-491.27 1178.31,-438.16 1195.72,-400.4 1230.03,-407.13 1238.31,-366.39"/>
</g>
<!-- weaviate_exceptions&#45;&gt;weaviate -->
<g id="edge27" class="edge">
<title>weaviate_exceptions&#45;&gt;weaviate</title><style>.edge>path:hover{stroke-width:8}</style>
<path fill="none" stroke="black" d="M1391.31,-626.12C1378.91,-606.23 1376.52,-540.83 1376.19,-503.21"/>
<polygon fill="#b13bce" stroke="black" points="1379.69,-502.94 1376.15,-492.95 1372.69,-502.97 1379.69,-502.94"/>
</g>
<!-- weaviate_exceptions&#45;&gt;weaviate_collections_classes_config -->
<g id="edge28" class="edge">
<title>weaviate_exceptions&#45;&gt;weaviate_collections_classes_config</title><style>.edge>path:hover{stroke-width:8}</style>
<path fill="none" stroke="black" d="M1156.31,-567.91C1144.21,-543.04 1165.24,-519.83 1189.02,-502.95"/>
<polygon fill="#b13bce" stroke="black" points="1191.15,-505.74 1197.49,-497.25 1187.24,-499.93 1191.15,-505.74"/>
</g>
</g>
</svg>
