<?xml version="1.0" encoding="UTF-8" standalone="no"?>
<!DOCTYPE svg PUBLIC "-//W3C//DTD SVG 1.1//EN"
 "http://www.w3.org/Graphics/SVG/1.1/DTD/svg11.dtd">
<!-- Generated by graphviz version 2.43.0 (0)
 -->
<!-- Title: G Pages: 1 -->
<svg width="1969pt" height="714pt"
 viewBox="0.00 0.00 1969.23 713.55" xmlns="http://www.w3.org/2000/svg" xmlns:xlink="http://www.w3.org/1999/xlink">
<g id="graph0" class="graph" transform="scale(1 1) rotate(0) translate(4 709.55)">
<title>G</title><style>.edge>path:hover{stroke-width:8}</style>
<polygon fill="white" stroke="transparent" points="-4,4 -4,-709.55 1965.23,-709.55 1965.23,4 -4,4"/>
<!-- dotenv -->
<g id="node1" class="node">
<title>dotenv</title><style>.edge>path:hover{stroke-width:8}</style>
<ellipse fill="#f31616" stroke="black" cx="1116.76" cy="-684.34" rx="29.37" ry="18"/>
<text text-anchor="middle" x="1116.76" y="-681.84" font-family="Helvetica,sans-Serif" font-size="10.00" fill="#ffffff">dotenv</text>
</g>
<!-- kk_src_llm_local_client -->
<g id="node6" class="node">
<title>kk_src_llm_local_client</title><style>.edge>path:hover{stroke-width:8}</style>
<ellipse fill="#ac9d49" stroke="black" cx="586.76" cy="-474.93" rx="65.52" ry="28.98"/>
<text text-anchor="middle" x="586.76" y="-483.43" font-family="Helvetica,sans-Serif" font-size="10.00" fill="#000000">kk.</text>
<text text-anchor="middle" x="586.76" y="-472.43" font-family="Helvetica,sans-Serif" font-size="10.00" fill="#000000">src.</text>
<text text-anchor="middle" x="586.76" y="-461.43" font-family="Helvetica,sans-Serif" font-size="10.00" fill="#000000">llm_local_client</text>
</g>
<!-- dotenv&#45;&gt;kk_src_llm_local_client -->
<g id="edge1" class="edge">
<title>dotenv&#45;&gt;kk_src_llm_local_client</title><style>.edge>path:hover{stroke-width:8}</style>
<path fill="none" stroke="black" d="M1121.6,-666.3C1127.22,-642.93 1133.7,-600.37 1116.76,-569.91"/>
<path fill="none" stroke="black" d="M1116.76,-567.91C1066.4,-494.56 797.41,-479.44 663.13,-476.51"/>
<polygon fill="#f31616" stroke="black" points="662.98,-473 652.91,-476.3 662.84,-480 662.98,-473"/>
</g>
<!-- kk_src_trade_market_ws -->
<g id="node17" class="node">
<title>kk_src_trade_market_ws</title><style>.edge>path:hover{stroke-width:8}</style>
<ellipse fill="#b3a44c" stroke="black" cx="969.76" cy="-365.39" rx="49.49" ry="36.54"/>
<text text-anchor="middle" x="969.76" y="-379.39" font-family="Helvetica,sans-Serif" font-size="10.00" fill="#000000">kk.</text>
<text text-anchor="middle" x="969.76" y="-368.39" font-family="Helvetica,sans-Serif" font-size="10.00" fill="#000000">src.</text>
<text text-anchor="middle" x="969.76" y="-357.39" font-family="Helvetica,sans-Serif" font-size="10.00" fill="#000000">trade.</text>
<text text-anchor="middle" x="969.76" y="-346.39" font-family="Helvetica,sans-Serif" font-size="10.00" fill="#000000">market_ws</text>
</g>
<!-- dotenv&#45;&gt;kk_src_trade_market_ws -->
<g id="edge2" class="edge">
<title>dotenv&#45;&gt;kk_src_trade_market_ws</title><style>.edge>path:hover{stroke-width:8}</style>
<path fill="none" stroke="black" d="M1116.76,-473.93C1114,-461.62 1057.61,-422.9 1015.49,-395.46"/>
<polygon fill="#f31616" stroke="black" points="1017.31,-392.46 1007.01,-389.96 1013.5,-398.34 1017.31,-392.46"/>
</g>
<!-- kk_src_trade_market_ws_binance -->
<g id="node18" class="node">
<title>kk_src_trade_market_ws_binance</title><style>.edge>path:hover{stroke-width:8}</style>
<ellipse fill="#b3a44c" stroke="black" cx="1116.76" cy="-365.39" rx="79.81" ry="36.54"/>
<text text-anchor="middle" x="1116.76" y="-379.39" font-family="Helvetica,sans-Serif" font-size="10.00" fill="#000000">kk.</text>
<text text-anchor="middle" x="1116.76" y="-368.39" font-family="Helvetica,sans-Serif" font-size="10.00" fill="#000000">src.</text>
<text text-anchor="middle" x="1116.76" y="-357.39" font-family="Helvetica,sans-Serif" font-size="10.00" fill="#000000">trade.</text>
<text text-anchor="middle" x="1116.76" y="-346.39" font-family="Helvetica,sans-Serif" font-size="10.00" fill="#000000">market_ws_binance</text>
</g>
<!-- dotenv&#45;&gt;kk_src_trade_market_ws_binance -->
<g id="edge3" class="edge">
<title>dotenv&#45;&gt;kk_src_trade_market_ws_binance</title><style>.edge>path:hover{stroke-width:8}</style>
<path fill="none" stroke="black" d="M1116.76,-473.93C1112.29,-454.01 1111.64,-431.48 1112.36,-412.21"/>
<polygon fill="#f31616" stroke="black" points="1115.86,-412.34 1112.87,-402.18 1108.87,-411.99 1115.86,-412.34"/>
</g>
<!-- kk_src_trade_market_ws_okx -->
<g id="node19" class="node">
<title>kk_src_trade_market_ws_okx</title><style>.edge>path:hover{stroke-width:8}</style>
<ellipse fill="#b3a44c" stroke="black" cx="1280.76" cy="-365.39" rx="65.52" ry="36.54"/>
<text text-anchor="middle" x="1280.76" y="-379.39" font-family="Helvetica,sans-Serif" font-size="10.00" fill="#000000">kk.</text>
<text text-anchor="middle" x="1280.76" y="-368.39" font-family="Helvetica,sans-Serif" font-size="10.00" fill="#000000">src.</text>
<text text-anchor="middle" x="1280.76" y="-357.39" font-family="Helvetica,sans-Serif" font-size="10.00" fill="#000000">trade.</text>
<text text-anchor="middle" x="1280.76" y="-346.39" font-family="Helvetica,sans-Serif" font-size="10.00" fill="#000000">market_ws_okx</text>
</g>
<!-- dotenv&#45;&gt;kk_src_trade_market_ws_okx -->
<g id="edge4" class="edge">
<title>dotenv&#45;&gt;kk_src_trade_market_ws_okx</title><style>.edge>path:hover{stroke-width:8}</style>
<path fill="none" stroke="black" d="M1116.76,-473.93C1112.82,-456.36 1122.85,-450.7 1135.76,-438.16 1139.34,-434.68 1183.63,-412.95 1222.32,-394.3"/>
<polygon fill="#f31616" stroke="black" points="1224,-397.37 1231.5,-389.88 1220.97,-391.07 1224,-397.37"/>
</g>
<!-- kk_src_trade_order -->
<g id="node20" class="node">
<title>kk_src_trade_order</title><style>.edge>path:hover{stroke-width:8}</style>
<ellipse fill="#a49746" stroke="black" cx="624.76" cy="-146.31" rx="31.64" ry="36.54"/>
<text text-anchor="middle" x="624.76" y="-160.31" font-family="Helvetica,sans-Serif" font-size="10.00" fill="#000000">kk.</text>
<text text-anchor="middle" x="624.76" y="-149.31" font-family="Helvetica,sans-Serif" font-size="10.00" fill="#000000">src.</text>
<text text-anchor="middle" x="624.76" y="-138.31" font-family="Helvetica,sans-Serif" font-size="10.00" fill="#000000">trade.</text>
<text text-anchor="middle" x="624.76" y="-127.31" font-family="Helvetica,sans-Serif" font-size="10.00" fill="#000000">order</text>
</g>
<!-- dotenv&#45;&gt;kk_src_trade_order -->
<g id="edge5" class="edge">
<title>dotenv&#45;&gt;kk_src_trade_order</title><style>.edge>path:hover{stroke-width:8}</style>
<path fill="none" stroke="black" d="M1116.76,-567.91C1093.62,-534.21 1125.71,-515.82 1116.76,-475.93"/>
<path fill="none" stroke="black" d="M1116.76,-473.93C1095.63,-379.73 984.63,-465.47 911.76,-402.16 883.99,-378.03 897.72,-356.54 873.76,-328.62 811.67,-256.26 715.29,-196.75 662.5,-167.28"/>
<polygon fill="#f31616" stroke="black" points="663.92,-164.07 653.48,-162.3 660.54,-170.2 663.92,-164.07"/>
</g>
<!-- kk_src_trade_loop -->
<g id="node21" class="node">
<title>kk_src_trade_loop</title><style>.edge>path:hover{stroke-width:8}</style>
<ellipse fill="#b3a44c" stroke="black" cx="1192.76" cy="-474.93" rx="48.17" ry="28.98"/>
<text text-anchor="middle" x="1192.76" y="-483.43" font-family="Helvetica,sans-Serif" font-size="10.00" fill="#000000">kk.</text>
<text text-anchor="middle" x="1192.76" y="-472.43" font-family="Helvetica,sans-Serif" font-size="10.00" fill="#000000">src.</text>
<text text-anchor="middle" x="1192.76" y="-461.43" font-family="Helvetica,sans-Serif" font-size="10.00" fill="#000000">trade_loop</text>
</g>
<!-- dotenv&#45;&gt;kk_src_trade_loop -->
<g id="edge6" class="edge">
<title>dotenv&#45;&gt;kk_src_trade_loop</title><style>.edge>path:hover{stroke-width:8}</style>
<path fill="none" stroke="black" d="M1116.76,-567.91C1102.98,-543.13 1125.66,-518.56 1149.75,-501.05"/>
<polygon fill="#f31616" stroke="black" points="1152.03,-503.73 1158.27,-495.16 1148.05,-497.97 1152.03,-503.73"/>
</g>
<!-- kk_src_agent_agent_decide_and_execute -->
<g id="node2" class="node">
<title>kk_src_agent_agent_decide_and_execute</title><style>.edge>path:hover{stroke-width:8}</style>
<ellipse fill="#887d3a" stroke="black" cx="421.76" cy="-146.31" rx="105.22" ry="36.54"/>
<text text-anchor="middle" x="421.76" y="-160.31" font-family="Helvetica,sans-Serif" font-size="10.00" fill="#ffffff">kk.</text>
<text text-anchor="middle" x="421.76" y="-149.31" font-family="Helvetica,sans-Serif" font-size="10.00" fill="#ffffff">src.</text>
<text text-anchor="middle" x="421.76" y="-138.31" font-family="Helvetica,sans-Serif" font-size="10.00" fill="#ffffff">agent.</text>
<text text-anchor="middle" x="421.76" y="-127.31" font-family="Helvetica,sans-Serif" font-size="10.00" fill="#ffffff">agent_decide_and_execute</text>
</g>
<!-- kk_src_agent_llm_agent -->
<g id="node3" class="node">
<title>kk_src_agent_llm_agent</title><style>.edge>path:hover{stroke-width:8}</style>
<ellipse fill="#b3a44c" stroke="black" cx="818.76" cy="-365.39" rx="45.92" ry="36.54"/>
<text text-anchor="middle" x="818.76" y="-379.39" font-family="Helvetica,sans-Serif" font-size="10.00" fill="#000000">kk.</text>
<text text-anchor="middle" x="818.76" y="-368.39" font-family="Helvetica,sans-Serif" font-size="10.00" fill="#000000">src.</text>
<text text-anchor="middle" x="818.76" y="-357.39" font-family="Helvetica,sans-Serif" font-size="10.00" fill="#000000">agent.</text>
<text text-anchor="middle" x="818.76" y="-346.39" font-family="Helvetica,sans-Serif" font-size="10.00" fill="#000000">llm_agent</text>
</g>
<!-- kk_src_agent_position_guard -->
<g id="node4" class="node">
<title>kk_src_agent_position_guard</title><style>.edge>path:hover{stroke-width:8}</style>
<ellipse fill="#c2b147" stroke="black" cx="421.76" cy="-255.85" rx="62.87" ry="36.54"/>
<text text-anchor="middle" x="421.76" y="-269.85" font-family="Helvetica,sans-Serif" font-size="10.00" fill="#000000">kk.</text>
<text text-anchor="middle" x="421.76" y="-258.85" font-family="Helvetica,sans-Serif" font-size="10.00" fill="#000000">src.</text>
<text text-anchor="middle" x="421.76" y="-247.85" font-family="Helvetica,sans-Serif" font-size="10.00" fill="#000000">agent.</text>
<text text-anchor="middle" x="421.76" y="-236.85" font-family="Helvetica,sans-Serif" font-size="10.00" fill="#000000">position_guard</text>
</g>
<!-- kk_src_agent_position_guard&#45;&gt;kk_src_agent_agent_decide_and_execute -->
<g id="edge7" class="edge">
<title>kk_src_agent_position_guard&#45;&gt;kk_src_agent_agent_decide_and_execute</title><style>.edge>path:hover{stroke-width:8}</style>
<path fill="none" stroke="black" d="M421.76,-219.04C421.76,-210.87 421.76,-202.08 421.76,-193.55"/>
<polygon fill="#c2b147" stroke="black" points="425.26,-193.33 421.76,-183.33 418.26,-193.33 425.26,-193.33"/>
</g>
<!-- kk_src_intent_cache -->
<g id="node5" class="node">
<title>kk_src_intent_cache</title><style>.edge>path:hover{stroke-width:8}</style>
<ellipse fill="#b3a44c" stroke="black" cx="1314.76" cy="-474.93" rx="55.72" ry="28.98"/>
<text text-anchor="middle" x="1314.76" y="-483.43" font-family="Helvetica,sans-Serif" font-size="10.00" fill="#000000">kk.</text>
<text text-anchor="middle" x="1314.76" y="-472.43" font-family="Helvetica,sans-Serif" font-size="10.00" fill="#000000">src.</text>
<text text-anchor="middle" x="1314.76" y="-461.43" font-family="Helvetica,sans-Serif" font-size="10.00" fill="#000000">intent_cache</text>
</g>
<!-- kk_src_monitor -->
<g id="node7" class="node">
<title>kk_src_monitor</title><style>.edge>path:hover{stroke-width:8}</style>
<ellipse fill="#ceb93b" stroke="black" cx="696.76" cy="-365.39" rx="51.43" ry="18"/>
<text text-anchor="middle" x="696.76" y="-362.89" font-family="Helvetica,sans-Serif" font-size="10.00" fill="#000000">kk.src.monitor</text>
</g>
<!-- kk_src_monitor&#45;&gt;kk_src_agent_agent_decide_and_execute -->
<g id="edge8" class="edge">
<title>kk_src_monitor&#45;&gt;kk_src_agent_agent_decide_and_execute</title><style>.edge>path:hover{stroke-width:8}</style>
<path fill="none" stroke="black" d="M686.52,-347.45C673.18,-325.8 648.73,-287.45 624.76,-256.85"/>
<path fill="none" stroke="black" d="M624.76,-254.85C595.62,-217.63 549.95,-191.83 509.3,-174.84"/>
<polygon fill="#ceb93b" stroke="black" points="510.49,-171.55 499.9,-171.03 507.86,-178.03 510.49,-171.55"/>
</g>
<!-- kk_src_monitor&#45;&gt;kk_src_trade_order -->
<g id="edge9" class="edge">
<title>kk_src_monitor&#45;&gt;kk_src_trade_order</title><style>.edge>path:hover{stroke-width:8}</style>
<path fill="none" stroke="black" d="M624.76,-254.85C611.01,-237.29 610.09,-212.7 613.02,-191.47"/>
<polygon fill="#ceb93b" stroke="black" points="616.52,-191.8 614.73,-181.36 609.62,-190.64 616.52,-191.8"/>
</g>
<!-- kk_src_monitor_metrics -->
<g id="node8" class="node">
<title>kk_src_monitor_metrics</title><style>.edge>path:hover{stroke-width:8}</style>
<ellipse fill="#ccb633" stroke="black" cx="586.76" cy="-365.39" rx="40.11" ry="36.54"/>
<text text-anchor="middle" x="586.76" y="-379.39" font-family="Helvetica,sans-Serif" font-size="10.00" fill="#000000">kk.</text>
<text text-anchor="middle" x="586.76" y="-368.39" font-family="Helvetica,sans-Serif" font-size="10.00" fill="#000000">src.</text>
<text text-anchor="middle" x="586.76" y="-357.39" font-family="Helvetica,sans-Serif" font-size="10.00" fill="#000000">monitor.</text>
<text text-anchor="middle" x="586.76" y="-346.39" font-family="Helvetica,sans-Serif" font-size="10.00" fill="#000000">metrics</text>
</g>
<!-- kk_src_monitor_metrics&#45;&gt;kk_src_agent_agent_decide_and_execute -->
<g id="edge10" class="edge">
<title>kk_src_monitor_metrics&#45;&gt;kk_src_agent_agent_decide_and_execute</title><style>.edge>path:hover{stroke-width:8}</style>
<path fill="none" stroke="black" d="M557.46,-339.83C551.25,-335.56 544.52,-331.56 537.76,-328.62 429.78,-281.7 240.94,-366.91 282.76,-256.85"/>
</g>
<!-- kk_src_monitor_metrics&#45;&gt;kk_src_trade_order -->
<g id="edge11" class="edge">
<title>kk_src_monitor_metrics&#45;&gt;kk_src_trade_order</title><style>.edge>path:hover{stroke-width:8}</style>
<path fill="none" stroke="black" d="M592.34,-328.81C597.03,-299.36 604.03,-256.45 610.76,-219.08 612.33,-210.36 614.08,-201.07 615.8,-192.16"/>
<polygon fill="#ccb633" stroke="black" points="619.25,-192.8 617.72,-182.31 612.37,-191.46 619.25,-192.8"/>
</g>
<!-- kk_src_risk -->
<g id="node9" class="node">
<title>kk_src_risk</title><style>.edge>path:hover{stroke-width:8}</style>
<ellipse fill="#c2b147" stroke="black" cx="188.76" cy="-365.39" rx="39.38" ry="18"/>
<text text-anchor="middle" x="188.76" y="-362.89" font-family="Helvetica,sans-Serif" font-size="10.00" fill="#000000">kk.src.risk</text>
</g>
<!-- kk_src_risk&#45;&gt;kk_src_agent_agent_decide_and_execute -->
<g id="edge12" class="edge">
<title>kk_src_risk&#45;&gt;kk_src_agent_agent_decide_and_execute</title><style>.edge>path:hover{stroke-width:8}</style>
<path fill="none" stroke="black" d="M208.39,-349.47C231.25,-330.75 267.79,-296.25 282.76,-256.85"/>
</g>
<!-- kk_src_risk_trailing -->
<g id="node10" class="node">
<title>kk_src_risk_trailing</title><style>.edge>path:hover{stroke-width:8}</style>
<ellipse fill="#c2b147" stroke="black" cx="282.76" cy="-365.39" rx="36.12" ry="36.54"/>
<text text-anchor="middle" x="282.76" y="-379.39" font-family="Helvetica,sans-Serif" font-size="10.00" fill="#000000">kk.</text>
<text text-anchor="middle" x="282.76" y="-368.39" font-family="Helvetica,sans-Serif" font-size="10.00" fill="#000000">src.</text>
<text text-anchor="middle" x="282.76" y="-357.39" font-family="Helvetica,sans-Serif" font-size="10.00" fill="#000000">risk.</text>
<text text-anchor="middle" x="282.76" y="-346.39" font-family="Helvetica,sans-Serif" font-size="10.00" fill="#000000">trailing</text>
</g>
<!-- kk_src_risk_trailing&#45;&gt;kk_src_agent_agent_decide_and_execute -->
<g id="edge13" class="edge">
<title>kk_src_risk_trailing&#45;&gt;kk_src_agent_agent_decide_and_execute</title><style>.edge>path:hover{stroke-width:8}</style>
<path fill="none" stroke="black" d="M276.55,-328.86C274.28,-307.33 274.07,-279.71 282.76,-256.85"/>
</g>
<!-- kk_src_storage -->
<g id="node11" class="node">
<title>kk_src_storage</title><style>.edge>path:hover{stroke-width:8}</style>
<ellipse fill="#c2b147" stroke="black" cx="387.76" cy="-365.39" rx="50.75" ry="18"/>
<text text-anchor="middle" x="387.76" y="-362.89" font-family="Helvetica,sans-Serif" font-size="10.00" fill="#000000">kk.src.storage</text>
</g>
<!-- kk_src_storage&#45;&gt;kk_src_agent_agent_decide_and_execute -->
<g id="edge14" class="edge">
<title>kk_src_storage&#45;&gt;kk_src_agent_agent_decide_and_execute</title><style>.edge>path:hover{stroke-width:8}</style>
<path fill="none" stroke="black" d="M365.76,-349.17C332.52,-325.27 274.21,-279.35 282.76,-256.85"/>
</g>
<!-- kk_src_storage_ensure_schema -->
<g id="node12" class="node">
<title>kk_src_storage_ensure_schema</title><style>.edge>path:hover{stroke-width:8}</style>
<ellipse fill="#c0ad40" stroke="black" cx="65.76" cy="-365.39" rx="65.52" ry="36.54"/>
<text text-anchor="middle" x="65.76" y="-379.39" font-family="Helvetica,sans-Serif" font-size="10.00" fill="#000000">kk.</text>
<text text-anchor="middle" x="65.76" y="-368.39" font-family="Helvetica,sans-Serif" font-size="10.00" fill="#000000">src.</text>
<text text-anchor="middle" x="65.76" y="-357.39" font-family="Helvetica,sans-Serif" font-size="10.00" fill="#000000">storage.</text>
<text text-anchor="middle" x="65.76" y="-346.39" font-family="Helvetica,sans-Serif" font-size="10.00" fill="#000000">ensure_schema</text>
</g>
<!-- kk_src_storage_ensure_schema&#45;&gt;kk_src_agent_agent_decide_and_execute -->
<g id="edge15" class="edge">
<title>kk_src_storage_ensure_schema&#45;&gt;kk_src_agent_agent_decide_and_execute</title><style>.edge>path:hover{stroke-width:8}</style>
<path fill="none" stroke="black" d="M114.77,-340.61C178.52,-309.6 281.93,-259.02 282.76,-256.85"/>
<path fill="none" stroke="black" d="M282.76,-254.85C294.74,-223.32 322.29,-198.97 349.73,-181.48"/>
<polygon fill="#c0ad40" stroke="black" points="351.91,-184.24 358.62,-176.04 348.26,-178.27 351.91,-184.24"/>
</g>
<!-- kk_src_storage_ensure_tradelog -->
<g id="node13" class="node">
<title>kk_src_storage_ensure_tradelog</title><style>.edge>path:hover{stroke-width:8}</style>
<ellipse fill="#8f833d" stroke="black" cx="1576.76" cy="-36.77" rx="67.35" ry="36.54"/>
<text text-anchor="middle" x="1576.76" y="-50.77" font-family="Helvetica,sans-Serif" font-size="10.00" fill="#ffffff">kk.</text>
<text text-anchor="middle" x="1576.76" y="-39.77" font-family="Helvetica,sans-Serif" font-size="10.00" fill="#ffffff">src.</text>
<text text-anchor="middle" x="1576.76" y="-28.77" font-family="Helvetica,sans-Serif" font-size="10.00" fill="#ffffff">storage.</text>
<text text-anchor="middle" x="1576.76" y="-17.77" font-family="Helvetica,sans-Serif" font-size="10.00" fill="#ffffff">ensure_tradelog</text>
</g>
<!-- kk_src_storage_weaviate_client -->
<g id="node14" class="node">
<title>kk_src_storage_weaviate_client</title><style>.edge>path:hover{stroke-width:8}</style>
<ellipse fill="#ac9d49" stroke="black" cx="1894.76" cy="-36.77" rx="66.44" ry="36.54"/>
<text text-anchor="middle" x="1894.76" y="-50.77" font-family="Helvetica,sans-Serif" font-size="10.00" fill="#000000">kk.</text>
<text text-anchor="middle" x="1894.76" y="-39.77" font-family="Helvetica,sans-Serif" font-size="10.00" fill="#000000">src.</text>
<text text-anchor="middle" x="1894.76" y="-28.77" font-family="Helvetica,sans-Serif" font-size="10.00" fill="#000000">storage.</text>
<text text-anchor="middle" x="1894.76" y="-17.77" font-family="Helvetica,sans-Serif" font-size="10.00" fill="#000000">weaviate_client</text>
</g>
<!-- kk_src_storage_weaviate_schema -->
<g id="node15" class="node">
<title>kk_src_storage_weaviate_schema</title><style>.edge>path:hover{stroke-width:8}</style>
<ellipse fill="#b3a44c" stroke="black" cx="1735.76" cy="-36.77" rx="74.49" ry="36.54"/>
<text text-anchor="middle" x="1735.76" y="-50.77" font-family="Helvetica,sans-Serif" font-size="10.00" fill="#000000">kk.</text>
<text text-anchor="middle" x="1735.76" y="-39.77" font-family="Helvetica,sans-Serif" font-size="10.00" fill="#000000">src.</text>
<text text-anchor="middle" x="1735.76" y="-28.77" font-family="Helvetica,sans-Serif" font-size="10.00" fill="#000000">storage.</text>
<text text-anchor="middle" x="1735.76" y="-17.77" font-family="Helvetica,sans-Serif" font-size="10.00" fill="#000000">weaviate_schema</text>
</g>
<!-- kk_src_trade_market -->
<g id="node16" class="node">
<title>kk_src_trade_market</title><style>.edge>path:hover{stroke-width:8}</style>
<ellipse fill="#b3a44c" stroke="black" cx="492.76" cy="-365.39" rx="36.12" ry="36.54"/>
<text text-anchor="middle" x="492.76" y="-379.39" font-family="Helvetica,sans-Serif" font-size="10.00" fill="#000000">kk.</text>
<text text-anchor="middle" x="492.76" y="-368.39" font-family="Helvetica,sans-Serif" font-size="10.00" fill="#000000">src.</text>
<text text-anchor="middle" x="492.76" y="-357.39" font-family="Helvetica,sans-Serif" font-size="10.00" fill="#000000">trade.</text>
<text text-anchor="middle" x="492.76" y="-346.39" font-family="Helvetica,sans-Serif" font-size="10.00" fill="#000000">market</text>
</g>
<!-- kk_ws_main -->
<g id="node22" class="node">
<title>kk_ws_main</title><style>.edge>path:hover{stroke-width:8}</style>
<ellipse fill="#ac9d49" stroke="black" cx="752.76" cy="-568.91" rx="44.3" ry="18"/>
<text text-anchor="middle" x="752.76" y="-566.41" font-family="Helvetica,sans-Serif" font-size="10.00" fill="#000000">kk.ws_main</text>
</g>
<!-- openai -->
<g id="node23" class="node">
<title>openai</title><style>.edge>path:hover{stroke-width:8}</style>
<ellipse fill="#5fcc33" stroke="black" cx="824.76" cy="-684.34" rx="29.37" ry="18"/>
<text text-anchor="middle" x="824.76" y="-681.84" font-family="Helvetica,sans-Serif" font-size="10.00" fill="#000000">openai</text>
</g>
<!-- openai&#45;&gt;kk_src_agent_llm_agent -->
<g id="edge16" class="edge">
<title>openai&#45;&gt;kk_src_agent_llm_agent</title><style>.edge>path:hover{stroke-width:8}</style>
<path fill="none" stroke="black" d="M824.76,-626.12C803.98,-553.56 807.81,-464.88 812.95,-412.15"/>
<polygon fill="#5fcc33" stroke="black" points="816.44,-412.41 813.98,-402.11 809.47,-411.69 816.44,-412.41"/>
</g>
<!-- openai&#45;&gt;kk_ws_main -->
<g id="edge17" class="edge">
<title>openai&#45;&gt;kk_ws_main</title><style>.edge>path:hover{stroke-width:8}</style>
<path fill="none" stroke="black" d="M827.17,-666.27C828.19,-654.95 828.41,-639.88 824.76,-627.12"/>
<path fill="none" stroke="black" d="M824.76,-626.12C819.95,-609.33 805.95,-596.58 791.56,-587.51"/>
<polygon fill="#5fcc33" stroke="black" points="793.04,-584.32 782.63,-582.33 789.53,-590.37 793.04,-584.32"/>
</g>
<!-- prometheus_client -->
<g id="node24" class="node">
<title>prometheus_client</title><style>.edge>path:hover{stroke-width:8}</style>
<ellipse fill="#33cc8a" stroke="black" cx="691.76" cy="-684.34" rx="62.97" ry="18"/>
<text text-anchor="middle" x="691.76" y="-681.84" font-family="Helvetica,sans-Serif" font-size="10.00" fill="#000000">prometheus_client</text>
</g>
<!-- prometheus_client&#45;&gt;kk_src_monitor_metrics -->
<g id="edge18" class="edge">
<title>prometheus_client&#45;&gt;kk_src_monitor_metrics</title><style>.edge>path:hover{stroke-width:8}</style>
<path fill="none" stroke="black" d="M685.06,-666.38C681.49,-655.23 678.3,-640.32 680.76,-627.12"/>
<path fill="none" stroke="black" d="M680.76,-626.12C696.18,-543.58 698.59,-513.61 661.76,-438.16 653.63,-421.5 639.94,-406.65 626.45,-394.84"/>
<polygon fill="#33cc8a" stroke="black" points="628.5,-391.98 618.58,-388.24 624,-397.35 628.5,-391.98"/>
</g>
<!-- prometheus_client&#45;&gt;kk_ws_main -->
<g id="edge19" class="edge">
<title>prometheus_client&#45;&gt;kk_ws_main</title><style>.edge>path:hover{stroke-width:8}</style>
<path fill="none" stroke="black" d="M680.76,-626.12C684.02,-608.66 698.22,-595.72 713.15,-586.68"/>
<polygon fill="#33cc8a" stroke="black" points="714.9,-589.71 721.95,-581.81 711.51,-583.59 714.9,-589.71"/>
</g>
<!-- redis -->
<g id="node25" class="node">
<title>redis</title><style>.edge>path:hover{stroke-width:8}</style>
<ellipse fill="#4089c0" stroke="black" cx="1314.76" cy="-684.34" rx="27" ry="18"/>
<text text-anchor="middle" x="1314.76" y="-681.84" font-family="Helvetica,sans-Serif" font-size="10.00" fill="#ffffff">redis</text>
</g>
<!-- redis&#45;&gt;kk_src_intent_cache -->
<g id="edge20" class="edge">
<title>redis&#45;&gt;kk_src_intent_cache</title><style>.edge>path:hover{stroke-width:8}</style>
<path fill="none" stroke="black" d="M1314.76,-666.01C1314.76,-632.77 1314.76,-559.34 1314.76,-514.1"/>
<polygon fill="#4089c0" stroke="black" points="1318.26,-514.07 1314.76,-504.07 1311.26,-514.07 1318.26,-514.07"/>
</g>
<!-- requests -->
<g id="node26" class="node">
<title>requests</title><style>.edge>path:hover{stroke-width:8}</style>
<ellipse fill="#5926d9" stroke="black" cx="575.76" cy="-684.34" rx="34.96" ry="18"/>
<text text-anchor="middle" x="575.76" y="-681.84" font-family="Helvetica,sans-Serif" font-size="10.00" fill="#ffffff">requests</text>
</g>
<!-- requests&#45;&gt;kk_src_llm_local_client -->
<g id="edge21" class="edge">
<title>requests&#45;&gt;kk_src_llm_local_client</title><style>.edge>path:hover{stroke-width:8}</style>
<path fill="none" stroke="black" d="M586.76,-567.91C582.7,-550.7 582.15,-531.16 582.84,-514.54"/>
<polygon fill="#5926d9" stroke="black" points="586.36,-514.27 583.44,-504.09 579.37,-513.87 586.36,-514.27"/>
</g>
<!-- requests&#45;&gt;kk_src_storage_ensure_schema -->
<g id="edge22" class="edge">
<title>requests&#45;&gt;kk_src_storage_ensure_schema</title><style>.edge>path:hover{stroke-width:8}</style>
<path fill="none" stroke="black" d="M580.86,-666.19C586.75,-643.77 594.67,-603.41 586.76,-569.91"/>
<path fill="none" stroke="black" d="M586.76,-567.91C576.49,-527.54 538.85,-543.34 511.76,-511.7 500.06,-498.02 507.31,-486.53 492.76,-475.93"/>
<path fill="none" stroke="black" d="M492.76,-473.93C363.72,-379.9 292.16,-452.85 140.76,-402.16 134.75,-400.14 128.59,-397.77 122.51,-395.21"/>
<polygon fill="#5926d9" stroke="black" points="123.62,-391.87 113.05,-391.07 120.81,-398.29 123.62,-391.87"/>
</g>
<!-- requests&#45;&gt;kk_src_trade_market -->
<g id="edge23" class="edge">
<title>requests&#45;&gt;kk_src_trade_market</title><style>.edge>path:hover{stroke-width:8}</style>
<path fill="none" stroke="black" d="M492.76,-473.93C473.48,-459.88 473.45,-433.07 478.25,-409.74"/>
<polygon fill="#5926d9" stroke="black" points="481.65,-410.54 480.56,-400 474.84,-408.92 481.65,-410.54"/>
</g>
<!-- weaviate -->
<g id="node27" class="node">
<title>weaviate</title><style>.edge>path:hover{stroke-width:8}</style>
<polygon fill="blue" stroke="black" points="1766.76,-492.93 1704.76,-492.93 1704.76,-456.93 1766.76,-456.93 1766.76,-492.93"/>
<text text-anchor="middle" x="1735.76" y="-472.43" font-family="Helvetica,sans-Serif" font-size="10.00" fill="white">weaviate</text>
</g>
<!-- weaviate&#45;&gt;kk_src_storage_ensure_tradelog -->
<g id="edge24" class="edge">
<title>weaviate&#45;&gt;kk_src_storage_ensure_tradelog</title><style>.edge>path:hover{stroke-width:8}</style>
<path fill="none" stroke="black" d="M1735.76,-456.92C1735.76,-408.52 1735.76,-265.82 1735.76,-147.31"/>
<path fill="none" stroke="black" d="M1735.76,-145.31C1735.76,-120.52 1682.08,-88.23 1637.1,-65.53"/>
<polygon fill="blue" stroke="black" points="1638.46,-62.29 1627.94,-60.98 1635.34,-68.56 1638.46,-62.29"/>
</g>
<!-- weaviate&#45;&gt;kk_src_storage_weaviate_client -->
<g id="edge25" class="edge">
<title>weaviate&#45;&gt;kk_src_storage_weaviate_client</title><style>.edge>path:hover{stroke-width:8}</style>
<path fill="none" stroke="black" d="M1735.76,-145.31C1735.76,-120.44 1789.78,-88.03 1834.85,-65.31"/>
<polygon fill="blue" stroke="black" points="1836.61,-68.34 1844.02,-60.76 1833.5,-62.07 1836.61,-68.34"/>
</g>
<!-- weaviate&#45;&gt;kk_src_storage_weaviate_schema -->
<g id="edge26" class="edge">
<title>weaviate&#45;&gt;kk_src_storage_weaviate_schema</title><style>.edge>path:hover{stroke-width:8}</style>
<path fill="none" stroke="black" d="M1735.76,-145.31C1735.76,-125.15 1735.76,-102.85 1735.76,-83.82"/>
<polygon fill="blue" stroke="black" points="1739.26,-83.62 1735.76,-73.62 1732.26,-83.62 1739.26,-83.62"/>
</g>
<!-- weaviate_collections -->
<g id="node28" class="node">
<title>weaviate_collections</title><style>.edge>path:hover{stroke-width:8}</style>
<polygon fill="blue" stroke="black" points="1613.26,-586.91 1544.26,-586.91 1544.26,-550.91 1613.26,-550.91 1613.26,-586.91"/>
<text text-anchor="middle" x="1578.76" y="-571.91" font-family="Helvetica,sans-Serif" font-size="10.00" fill="white">weaviate.</text>
<text text-anchor="middle" x="1578.76" y="-560.91" font-family="Helvetica,sans-Serif" font-size="10.00" fill="white">collections</text>
</g>
<!-- weaviate_collections&#45;&gt;kk_src_storage_ensure_tradelog -->
<g id="edge27" class="edge">
<title>weaviate_collections&#45;&gt;kk_src_storage_ensure_tradelog</title><style>.edge>path:hover{stroke-width:8}</style>
<path fill="none" stroke="black" d="M1609.52,-550.76C1625.33,-540.84 1644.1,-527.26 1657.76,-511.7 1669.63,-498.17 1678.06,-493.88 1676.76,-475.93"/>
<path fill="none" stroke="black" d="M1676.76,-473.93C1672.49,-414.77 1585.96,-424.51 1597.76,-366.39"/>
</g>
<!-- weaviate_collections&#45;&gt;weaviate -->
<g id="edge28" class="edge">
<title>weaviate_collections&#45;&gt;weaviate</title><style>.edge>path:hover{stroke-width:8}</style>
<path fill="none" stroke="black" d="M1613.39,-551.49C1640.92,-538.27 1677.01,-520.48 1690.76,-511.7 1696.52,-508.01 1702.43,-503.74 1707.98,-499.46"/>
<polygon fill="blue" stroke="black" points="1710.16,-502.2 1715.81,-493.24 1705.81,-496.71 1710.16,-502.2"/>
</g>
<!-- weaviate_collections_classes -->
<g id="node29" class="node">
<title>weaviate_collections_classes</title><style>.edge>path:hover{stroke-width:8}</style>
<ellipse fill="#c247b1" stroke="black" cx="1439.76" cy="-474.93" rx="50.82" ry="28.98"/>
<text text-anchor="middle" x="1439.76" y="-483.43" font-family="Helvetica,sans-Serif" font-size="10.00" fill="#ffffff">weaviate.</text>
<text text-anchor="middle" x="1439.76" y="-472.43" font-family="Helvetica,sans-Serif" font-size="10.00" fill="#ffffff">collections.</text>
<text text-anchor="middle" x="1439.76" y="-461.43" font-family="Helvetica,sans-Serif" font-size="10.00" fill="#ffffff">classes</text>
</g>
<!-- weaviate_collections_classes&#45;&gt;kk_src_storage_ensure_tradelog -->
<g id="edge29" class="edge">
<title>weaviate_collections_classes&#45;&gt;kk_src_storage_ensure_tradelog</title><style>.edge>path:hover{stroke-width:8}</style>
<path fill="none" stroke="black" d="M1474.89,-453.66C1520.67,-426.72 1595.23,-380.85 1597.76,-366.39"/>
<path fill="none" stroke="black" d="M1597.76,-364.39C1615.09,-265.24 1598.38,-146.92 1586.45,-83.43"/>
<polygon fill="#c247b1" stroke="black" points="1589.83,-82.51 1584.5,-73.35 1582.96,-83.83 1589.83,-82.51"/>
</g>
<!-- weaviate_collections_classes_config -->
<g id="node30" class="node">
<title>weaviate_collections_classes_config</title><style>.edge>path:hover{stroke-width:8}</style>
<ellipse fill="#9d4390" stroke="black" cx="1597.76" cy="-474.93" rx="50.82" ry="36.54"/>
<text text-anchor="middle" x="1597.76" y="-488.93" font-family="Helvetica,sans-Serif" font-size="10.00" fill="#ffffff">weaviate.</text>
<text text-anchor="middle" x="1597.76" y="-477.93" font-family="Helvetica,sans-Serif" font-size="10.00" fill="#ffffff">collections.</text>
<text text-anchor="middle" x="1597.76" y="-466.93" font-family="Helvetica,sans-Serif" font-size="10.00" fill="#ffffff">classes.</text>
<text text-anchor="middle" x="1597.76" y="-455.93" font-family="Helvetica,sans-Serif" font-size="10.00" fill="#ffffff">config</text>
</g>
<!-- weaviate_collections_classes_config&#45;&gt;kk_src_storage_ensure_tradelog -->
<g id="edge30" class="edge">
<title>weaviate_collections_classes_config&#45;&gt;kk_src_storage_ensure_tradelog</title><style>.edge>path:hover{stroke-width:8}</style>
<path fill="none" stroke="black" d="M1594.67,-437.81C1593.65,-416.81 1593.65,-389.93 1597.76,-366.39"/>
</g>
<!-- weaviate_connect -->
<g id="node31" class="node">
<title>weaviate_connect</title><style>.edge>path:hover{stroke-width:8}</style>
<ellipse fill="#ce3bb9" stroke="black" cx="1676.76" cy="-568.91" rx="45.92" ry="21.43"/>
<text text-anchor="middle" x="1676.76" y="-571.91" font-family="Helvetica,sans-Serif" font-size="10.00" fill="#ffffff">weaviate.</text>
<text text-anchor="middle" x="1676.76" y="-560.91" font-family="Helvetica,sans-Serif" font-size="10.00" fill="#ffffff">connect</text>
</g>
<!-- weaviate_connect&#45;&gt;kk_src_storage_ensure_tradelog -->
<g id="edge31" class="edge">
<title>weaviate_connect&#45;&gt;kk_src_storage_ensure_tradelog</title><style>.edge>path:hover{stroke-width:8}</style>
<path fill="none" stroke="black" d="M1677.6,-547.42C1678.17,-528.76 1678.53,-500.45 1676.76,-475.93"/>
</g>
<!-- weaviate_connect&#45;&gt;kk_src_storage_weaviate_client -->
<g id="edge32" class="edge">
<title>weaviate_connect&#45;&gt;kk_src_storage_weaviate_client</title><style>.edge>path:hover{stroke-width:8}</style>
<path fill="none" stroke="black" d="M1711.44,-554.57C1732.23,-545.15 1758,-530.81 1775.76,-511.7 1824.43,-459.33 1844.76,-437.88 1844.76,-366.39 1844.76,-366.39 1844.76,-366.39 1844.76,-254.85 1844.76,-194.03 1863.63,-126.02 1878.18,-82.6"/>
<polygon fill="#ce3bb9" stroke="black" points="1881.57,-83.51 1881.49,-72.92 1874.95,-81.25 1881.57,-83.51"/>
</g>
<!-- weaviate_connect&#45;&gt;weaviate -->
<g id="edge33" class="edge">
<title>weaviate_connect&#45;&gt;weaviate</title><style>.edge>path:hover{stroke-width:8}</style>
<path fill="none" stroke="black" d="M1689.27,-548.4C1698.01,-534.78 1709.77,-516.45 1719.27,-501.63"/>
<polygon fill="#ce3bb9" stroke="black" points="1722.4,-503.24 1724.85,-492.93 1716.51,-499.46 1722.4,-503.24"/>
</g>
<!-- weaviate_exceptions -->
<g id="node32" class="node">
<title>weaviate_exceptions</title><style>.edge>path:hover{stroke-width:8}</style>
<ellipse fill="#ce3bb9" stroke="black" cx="1750.76" cy="-684.34" rx="49.49" ry="21.43"/>
<text text-anchor="middle" x="1750.76" y="-687.34" font-family="Helvetica,sans-Serif" font-size="10.00" fill="#ffffff">weaviate.</text>
<text text-anchor="middle" x="1750.76" y="-676.34" font-family="Helvetica,sans-Serif" font-size="10.00" fill="#ffffff">exceptions</text>
</g>
<!-- weaviate_exceptions&#45;&gt;kk_src_storage_ensure_tradelog -->
<g id="edge34" class="edge">
<title>weaviate_exceptions&#45;&gt;kk_src_storage_ensure_tradelog</title><style>.edge>path:hover{stroke-width:8}</style>
<path fill="none" stroke="black" d="M1755.79,-663.13C1757.47,-651.71 1757.47,-637.66 1750.76,-627.12"/>
<path fill="none" stroke="black" d="M1750.76,-626.12C1693.1,-535.53 1562.73,-666.48 1515.76,-569.91"/>
<path fill="none" stroke="black" d="M1515.76,-567.91C1490.18,-515.31 1513.26,-491.27 1537.76,-438.16 1555.17,-400.4 1589.48,-407.13 1597.76,-366.39"/>
</g>
<!-- weaviate_exceptions&#45;&gt;weaviate -->
<g id="edge35" class="edge">
<title>weaviate_exceptions&#45;&gt;weaviate</title><style>.edge>path:hover{stroke-width:8}</style>
<path fill="none" stroke="black" d="M1750.76,-626.12C1738.37,-606.23 1735.97,-540.83 1735.65,-503.21"/>
<polygon fill="#ce3bb9" stroke="black" points="1739.15,-502.94 1735.61,-492.95 1732.15,-502.97 1739.15,-502.94"/>
</g>
<!-- weaviate_exceptions&#45;&gt;weaviate_collections_classes_config -->
<g id="edge36" class="edge">
<title>weaviate_exceptions&#45;&gt;weaviate_collections_classes_config</title><style>.edge>path:hover{stroke-width:8}</style>
<path fill="none" stroke="black" d="M1515.76,-567.91C1503.67,-543.04 1524.69,-519.83 1548.47,-502.95"/>
<polygon fill="#ce3bb9" stroke="black" points="1550.61,-505.74 1556.95,-497.25 1546.7,-499.93 1550.61,-505.74"/>
</g>
</g>
</svg>
