<?xml version="1.0" encoding="UTF-8" standalone="no"?>
<!DOCTYPE svg PUBLIC "-//W3C//DTD SVG 1.1//EN"
 "http://www.w3.org/Graphics/SVG/1.1/DTD/svg11.dtd">
<!-- Generated by graphviz version 2.43.0 (0)
 -->
<!-- Title: G Pages: 1 -->
<svg width="359pt" height="212pt"
 viewBox="0.00 0.00 359.29 211.98" xmlns="http://www.w3.org/2000/svg" xmlns:xlink="http://www.w3.org/1999/xlink">
<g id="graph0" class="graph" transform="scale(1 1) rotate(0) translate(4 207.98)">
<title>G</title><style>.edge>path:hover{stroke-width:8}</style>
<polygon fill="white" stroke="transparent" points="-4,4 -4,-207.98 355.29,-207.98 355.29,4 -4,4"/>
<!-- meilisearch -->
<g id="node1" class="node">
<title>meilisearch</title><style>.edge>path:hover{stroke-width:8}</style>
<ellipse fill="#c04040" stroke="black" cx="43.56" cy="-185.98" rx="43.62" ry="18"/>
<text text-anchor="middle" x="43.56" y="-183.48" font-family="Helvetica,sans-Serif" font-size="10.00" fill="#ffffff">meilisearch</text>
</g>
<!-- windking_ingest_etl_loader -->
<g id="node6" class="node">
<title>windking_ingest_etl_loader</title><style>.edge>path:hover{stroke-width:8}</style>
<ellipse fill="#9246a4" stroke="black" cx="141.56" cy="-28.99" rx="45.92" ry="28.98"/>
<text text-anchor="middle" x="141.56" y="-37.49" font-family="Helvetica,sans-Serif" font-size="10.00" fill="#ffffff">windking.</text>
<text text-anchor="middle" x="141.56" y="-26.49" font-family="Helvetica,sans-Serif" font-size="10.00" fill="#ffffff">ingest.</text>
<text text-anchor="middle" x="141.56" y="-15.49" font-family="Helvetica,sans-Serif" font-size="10.00" fill="#ffffff">etl_loader</text>
</g>
<!-- meilisearch&#45;&gt;windking_ingest_etl_loader -->
<g id="edge1" class="edge">
<title>meilisearch&#45;&gt;windking_ingest_etl_loader</title><style>.edge>path:hover{stroke-width:8}</style>
<path fill="none" stroke="black" d="M74.78,-173.28C101.4,-162.46 136.19,-145.98 141.56,-131.98"/>
<path fill="none" stroke="black" d="M141.56,-130.98C149.17,-111.14 149.57,-87.44 147.89,-68"/>
<polygon fill="#c04040" stroke="black" points="151.36,-67.53 146.81,-57.97 144.4,-68.29 151.36,-67.53"/>
</g>
<!-- redis -->
<g id="node2" class="node">
<title>redis</title><style>.edge>path:hover{stroke-width:8}</style>
<ellipse fill="#aecc33" stroke="black" cx="236.56" cy="-185.98" rx="27" ry="18"/>
<text text-anchor="middle" x="236.56" y="-183.48" font-family="Helvetica,sans-Serif" font-size="10.00" fill="#000000">redis</text>
</g>
<!-- windking_ingest_collector -->
<g id="node5" class="node">
<title>windking_ingest_collector</title><style>.edge>path:hover{stroke-width:8}</style>
<ellipse fill="#9849ac" stroke="black" cx="250.56" cy="-28.99" rx="45.01" ry="28.98"/>
<text text-anchor="middle" x="250.56" y="-37.49" font-family="Helvetica,sans-Serif" font-size="10.00" fill="#ffffff">windking.</text>
<text text-anchor="middle" x="250.56" y="-26.49" font-family="Helvetica,sans-Serif" font-size="10.00" fill="#ffffff">ingest.</text>
<text text-anchor="middle" x="250.56" y="-15.49" font-family="Helvetica,sans-Serif" font-size="10.00" fill="#ffffff">collector</text>
</g>
<!-- redis&#45;&gt;windking_ingest_collector -->
<g id="edge2" class="edge">
<title>redis&#45;&gt;windking_ingest_collector</title><style>.edge>path:hover{stroke-width:8}</style>
<path fill="none" stroke="black" d="M250.56,-93.98C247.66,-85.96 246.5,-76.99 246.3,-68.37"/>
<polygon fill="#aecc33" stroke="black" points="249.8,-68.17 246.47,-58.11 242.8,-68.05 249.8,-68.17"/>
</g>
<!-- redis&#45;&gt;windking_ingest_etl_loader -->
<g id="edge3" class="edge">
<title>redis&#45;&gt;windking_ingest_etl_loader</title><style>.edge>path:hover{stroke-width:8}</style>
<path fill="none" stroke="black" d="M243.85,-168.59C250.95,-150.18 259.49,-119.67 250.56,-94.98"/>
<path fill="none" stroke="black" d="M250.56,-93.98C247.63,-86.81 214.77,-68.08 185.88,-52.72"/>
<polygon fill="#aecc33" stroke="black" points="187.17,-49.44 176.69,-47.88 183.9,-55.64 187.17,-49.44"/>
</g>
<!-- requests -->
<g id="node3" class="node">
<title>requests</title><style>.edge>path:hover{stroke-width:8}</style>
<ellipse fill="#40c073" stroke="black" cx="316.56" cy="-185.98" rx="34.96" ry="18"/>
<text text-anchor="middle" x="316.56" y="-183.48" font-family="Helvetica,sans-Serif" font-size="10.00" fill="#000000">requests</text>
</g>
<!-- requests&#45;&gt;windking_ingest_collector -->
<g id="edge4" class="edge">
<title>requests&#45;&gt;windking_ingest_collector</title><style>.edge>path:hover{stroke-width:8}</style>
<path fill="none" stroke="black" d="M309.37,-168.1C299.08,-143.93 279.87,-98.83 266.21,-66.75"/>
<polygon fill="#40c073" stroke="black" points="269.31,-65.08 262.17,-57.25 262.86,-67.82 269.31,-65.08"/>
</g>
<!-- weaviate -->
<g id="node4" class="node">
<title>weaviate</title><style>.edge>path:hover{stroke-width:8}</style>
<ellipse fill="#4073c0" stroke="black" cx="141.56" cy="-185.98" rx="36.49" ry="18"/>
<text text-anchor="middle" x="141.56" y="-183.48" font-family="Helvetica,sans-Serif" font-size="10.00" fill="#ffffff">weaviate</text>
</g>
<!-- weaviate&#45;&gt;windking_ingest_etl_loader -->
<g id="edge5" class="edge">
<title>weaviate&#45;&gt;windking_ingest_etl_loader</title><style>.edge>path:hover{stroke-width:8}</style>
<path fill="none" stroke="black" d="M138.5,-167.71C137.35,-157.06 137.21,-143.32 141.56,-131.98"/>
</g>
</g>
</svg>
